<svg width="36" height="36" viewBox="0 0 36 36" fill="none" xmlns="http://www.w3.org/2000/svg">
<path d="M34.6745 1.32211C34.1367 0.777796 33.4676 0.381388 32.7319 0.17118C31.9962 -0.0390283 31.2187 -0.0559308 30.4745 0.122105L6.47449 5.1771C5.09235 5.36665 3.79059 5.93832 2.71579 6.82772C1.64099 7.71713 0.835856 8.88894 0.391049 10.2112C-0.0537578 11.5335 -0.120567 12.9536 0.198145 14.3118C0.516857 15.67 1.20843 16.9122 2.19499 17.8986L4.77199 20.4741C4.91146 20.6135 5.02207 20.7791 5.09749 20.9613C5.1729 21.1436 5.21164 21.3389 5.21149 21.5361V26.2881C5.2148 26.9562 5.36861 27.6151 5.66149 28.2156L5.64949 28.2261L5.68849 28.2651C6.12801 29.1488 6.84586 29.8635 7.73149 30.2991L7.77049 30.3381L7.78099 30.3261C8.38153 30.619 9.04034 30.7728 9.70849 30.7761H14.4605C14.8581 30.7758 15.2395 30.9333 15.521 31.2141L18.0965 33.7896C18.7873 34.488 19.6095 35.0429 20.5157 35.4221C21.4219 35.8013 22.3941 35.9974 23.3765 35.9991C24.1951 35.9981 25.0082 35.8643 25.784 35.6031C27.0942 35.1729 28.258 34.3851 29.1443 33.3287C30.0306 32.2722 30.6041 30.9891 30.8 29.6241L35.8625 5.5716C36.0498 4.82107 36.0387 4.03474 35.8305 3.28975C35.6222 2.54476 35.2238 1.86671 34.6745 1.32211ZM6.89599 18.3561L4.31749 15.7806C3.71707 15.1946 3.29625 14.4496 3.10442 13.6328C2.91259 12.8161 2.95771 11.9616 3.23449 11.1696C3.50283 10.3571 3.99889 9.63874 4.66368 9.1C5.32847 8.56125 6.13401 8.22478 6.98449 8.1306L30.746 3.1281L8.20849 25.6686V21.5361C8.21076 20.9456 8.09593 20.3605 7.87064 19.8147C7.64536 19.2689 7.31409 18.7731 6.89599 18.3561ZM27.8525 29.1111C27.7373 29.9396 27.3935 30.7196 26.8596 31.3636C26.3258 32.0075 25.623 32.4899 24.8302 32.7566C24.0374 33.0233 23.1859 33.0638 22.3714 32.8735C21.5569 32.6831 20.8115 32.2695 20.219 31.6791L17.639 29.0991C17.2225 28.6804 16.7272 28.3484 16.1816 28.1223C15.636 27.8962 15.051 27.7806 14.4605 27.7821H10.328L32.8685 5.2491L27.8525 29.1111Z" fill="white"/>
</svg>
