<svg width="40" height="41" viewBox="0 0 40 41" fill="none" xmlns="http://www.w3.org/2000/svg">
<path d="M20.0007 7.73417C22.8664 7.69008 25.6379 8.75771 27.7334 10.713L33.3776 5.19379C29.7564 1.8006 24.9629 -0.060042 20.0007 0.00147836C16.2931 0.000621659 12.6584 1.03116 9.503 2.97786C6.3476 4.92455 3.79595 7.71064 2.13339 11.0246L8.6007 16.0457C9.39149 13.6412 10.9171 11.5456 12.9624 10.0544C15.0077 8.56318 17.4696 7.75163 20.0007 7.73417Z" fill="#E43E2B"/>
<path d="M39.2002 20.4463C39.2237 19.0714 39.0817 17.6987 38.7771 16.3578H20.0002V23.7809H31.0232C30.8141 25.0823 30.344 26.328 29.641 27.4431C28.9381 28.5581 28.0169 29.5195 26.9328 30.2693L33.2444 35.1578C35.2114 33.2587 36.7583 30.9682 37.7851 28.4342C38.812 25.9002 39.296 23.179 39.2059 20.4463H39.2002Z" fill="#3B7DED"/>
<path d="M8.62374 23.9563C8.18646 22.6831 7.96103 21.3468 7.95643 20.0006C7.9644 18.6565 8.18175 17.3219 8.60066 16.0448L2.13335 11.0237C0.730646 13.8085 0 16.8833 0 20.0015C0 23.1197 0.730646 26.1945 2.13335 28.9794L8.62374 23.9563Z" fill="#F0B501"/>
<path d="M20.0007 40.0012C24.8723 40.139 29.6118 38.4055 33.2449 35.157L26.9333 30.2685C24.8869 31.6405 22.4634 32.3396 20.0007 32.2685C17.4717 32.2535 15.0116 31.4425 12.9695 29.9506C10.9274 28.4587 9.40691 26.3617 8.62373 23.957L2.15642 28.9801C3.8145 32.2925 6.36198 35.078 9.51357 37.0245C12.6652 38.971 16.2964 40.0017 20.0007 40.0012Z" fill="#2BA24C"/>
</svg>
