<svg width="36" height="33" viewBox="0 0 36 33" fill="none" xmlns="http://www.w3.org/2000/svg">
<path d="M26.2501 0.875488C24.561 0.901761 22.9087 1.37327 21.4602 2.24239C20.0117 3.11152 18.8181 4.34749 18.0001 5.82549C17.182 4.34749 15.9885 3.11152 14.5399 2.24239C13.0914 1.37327 11.4391 0.901761 9.75006 0.875488C7.05747 0.992474 4.52062 2.17037 2.69373 4.15184C0.866849 6.1333 -0.101566 8.75728 5.95045e-05 11.4505C5.95045e-05 18.271 7.17906 25.72 13.2001 30.7705C14.5444 31.9002 16.2441 32.5195 18.0001 32.5195C19.756 32.5195 21.4557 31.9002 22.8001 30.7705C28.8211 25.72 36 18.271 36 11.4505C36.1017 8.75728 35.1333 6.1333 33.3064 4.15184C31.4795 2.17037 28.9426 0.992474 26.2501 0.875488ZM20.8726 28.4755C20.0685 29.1526 19.0512 29.5238 18.0001 29.5238C16.9489 29.5238 15.9316 29.1526 15.1276 28.4755C7.42056 22.009 3.00006 15.805 3.00006 11.4505C2.89752 9.55256 3.54961 7.69108 4.8141 6.27204C6.0786 4.85299 7.85291 3.99151 9.75006 3.87549C11.6472 3.99151 13.4215 4.85299 14.686 6.27204C15.9505 7.69108 16.6026 9.55256 16.5001 11.4505C16.5001 11.8483 16.6581 12.2298 16.9394 12.5111C17.2207 12.7925 17.6022 12.9505 18.0001 12.9505C18.3979 12.9505 18.7794 12.7925 19.0607 12.5111C19.342 12.2298 19.5001 11.8483 19.5001 11.4505C19.3975 9.55256 20.0496 7.69108 21.3141 6.27204C22.5786 4.85299 24.3529 3.99151 26.2501 3.87549C28.1472 3.99151 29.9215 4.85299 31.186 6.27204C32.4505 7.69108 33.1026 9.55256 33 11.4505C33 15.805 28.5796 22.009 20.8726 28.4695V28.4755Z" fill="white"/>
</svg>
