<svg width="28" height="28" viewBox="0 0 28 28" fill="none" xmlns="http://www.w3.org/2000/svg">
<path d="M27.6582 26.0085L20.6943 19.0447C22.5921 16.7237 23.5251 13.7621 23.3005 10.7725C23.0759 7.78286 21.7107 4.99394 19.4875 2.9826C17.2643 0.971252 14.353 -0.108636 11.3559 -0.0336988C8.3588 0.0412383 5.50515 1.26527 3.38521 3.38521C1.26527 5.50515 0.0412383 8.3588 -0.0336988 11.3559C-0.108636 14.353 0.971252 17.2643 2.9826 19.4875C4.99394 21.7107 7.78286 23.0759 10.7725 23.3005C13.7621 23.5251 16.7237 22.5921 19.0447 20.6943L26.0085 27.6582C26.2285 27.8707 26.5232 27.9883 26.8291 27.9856C27.135 27.983 27.4276 27.8603 27.644 27.644C27.8603 27.4276 27.983 27.135 27.9856 26.8291C27.9883 26.5232 27.8707 26.2285 27.6582 26.0085ZM11.6667 21C9.8207 21 8.0162 20.4526 6.48134 19.427C4.94648 18.4015 3.7502 16.9438 3.04378 15.2384C2.33736 13.5329 2.15253 11.6563 2.51266 9.84582C2.87279 8.03533 3.7617 6.37229 5.06699 5.06699C6.37229 3.7617 8.03533 2.87279 9.84582 2.51266C11.6563 2.15253 13.5329 2.33736 15.2384 3.04378C16.9438 3.7502 18.4015 4.94648 19.427 6.48134C20.4526 8.0162 21 9.8207 21 11.6667C20.9972 14.1412 20.013 16.5135 18.2633 18.2633C16.5135 20.013 14.1412 20.9972 11.6667 21Z" fill="black" fill-opacity="0.5"/>
</svg>
