<svg width="180" height="198" viewBox="0 0 180 198" fill="none" xmlns="http://www.w3.org/2000/svg">
<path d="M25.8664 120.8C25.0247 122.232 24.2004 123.676 23.3283 125.091C23.0376 125.564 23.1721 125.798 23.5886 126.063C25.9532 127.564 28.3221 129.056 30.6562 130.597C31.4979 131.152 31.6541 130.475 31.9405 130.006C37.7239 120.635 43.4986 111.264 49.2776 101.892C50.0586 100.625 50.8439 99.3584 51.6248 98.0915C52.6531 96.4168 52.6488 96.4124 51.0738 95.3234C51.3775 93.9307 52.4969 93.2626 53.5512 92.5381C54.3191 92.998 55.1044 93.4318 55.855 93.9221C57.3084 94.8679 57.4907 95.7139 56.649 97.2064C56.3886 97.6663 55.9678 98.0481 55.9114 98.7336C61.9508 99.0373 67.9337 98.5948 73.908 98.0091C74.1336 98.6946 73.6477 99.0894 73.2659 99.4929C72.3765 100.417 71.4697 101.328 70.589 102.261C70.064 102.556 69.487 102.651 68.8969 102.69C64.2459 103.012 59.5906 103.046 54.9309 102.929C53.9373 102.903 53.3429 103.207 52.831 104.04C48.1019 111.745 43.3511 119.438 38.6003 127.126C37.6892 128.601 37.7065 128.605 39.0255 129.803C39.5201 130.249 40.1752 130.553 40.4095 131.252C40.2099 132.527 39.0385 133.785 37.7586 134.102C36.9256 133.43 36.0882 132.761 35.2552 132.089C34.6868 132.939 34.1358 133.798 33.5458 134.636C32.8646 135.599 31.8971 135.838 30.9426 135.235C26.9814 132.748 23.0636 130.189 19.1285 127.655C19.0634 127.612 19.0374 127.503 18.994 127.425C18.7814 126.926 18.994 126.579 19.3715 126.254C21.146 124.726 22.6905 122.969 24.3913 121.368C24.7904 120.991 25.1505 120.396 25.8664 120.8Z" fill="#FCC239"/>
<path d="M120.119 137.135C119.958 139.773 118.054 142.168 115.359 142.931C114.487 143.179 113.967 143.361 114.275 144.437C114.409 144.914 114.166 145.495 114.097 146.029C113.099 147.626 111.585 148.745 110.344 150.112C109.958 150.537 109.407 150.841 109.251 151.457C108.517 151.856 107.676 151.973 106.916 151.838C105.949 151.674 105.823 152.068 105.658 152.862C104.916 156.433 101.194 158.945 97.8226 158.229C97.649 157.739 98.0178 157.47 98.2868 157.201C101.341 154.164 104.331 151.062 107.454 148.094C107.658 147.951 107.871 147.825 108.079 147.686C109.251 147.114 109.789 145.99 110.444 144.966C113.051 142.519 115.511 139.929 118.062 137.426C118.383 137.109 118.687 136.77 119.03 136.475C119.329 136.219 119.655 135.76 120.058 136.015C120.418 136.25 120.245 136.744 120.119 137.135Z" fill="#DF74AB"/>
<path d="M45.7112 147.105C45.2036 146.502 45.876 145.022 44.3055 145.205C43.9106 144.333 44.6916 143.994 45.1211 143.56C49.0346 139.612 52.9654 135.686 56.9135 131.777C57.4472 131.247 57.8637 130.748 57.6641 129.954C59.1479 129.429 60.5883 129.408 61.942 130.336C62.1676 131.486 61.1871 132.987 59.7293 133.712C59.4473 133.851 59.1349 133.898 58.8485 134.02C57.7986 134.384 56.9873 135.022 56.2844 135.907C54.6054 138.02 52.7528 139.99 51.013 142.055C50.3709 142.818 49.8502 143.656 49.2949 144.471C48.4879 145.109 47.8024 145.873 47.0475 146.567C46.683 146.901 46.3663 147.456 45.7112 147.105Z" fill="#F7AF53"/>
<path d="M37.5546 139.781C37.1034 138.488 37.1815 137.217 37.7151 135.968C40.5482 133.217 43.312 130.397 46.1234 127.629C46.644 127.117 47.0779 126.57 47.3295 125.885C48.4532 125.286 49.5335 125.824 50.6269 126.011C51.2777 126.635 50.6876 127.078 50.3579 127.494C49.7158 128.306 48.8654 128.935 48.2753 129.798C45.4379 131.646 43.7111 134.553 41.4507 136.957C40.4832 137.603 39.7196 138.471 38.8779 139.256C38.5265 139.586 38.2054 140.133 37.5546 139.781Z" fill="#FBBD3F"/>
<path d="M118.444 86.8675C119.372 86.1777 120.188 86.3122 120.895 87.2103C121.004 87.6875 120.67 87.9608 120.392 88.2385C118.843 89.7787 117.329 91.358 115.758 92.8852C114.292 93.844 112.856 94.8593 111.342 95.7443C110.543 96.2129 110.4 96.6772 110.89 97.4017C111.073 97.9527 110.656 98.2434 110.352 98.5471C108.413 100.508 106.461 102.461 104.5 104.396C104.066 104.825 103.58 105.129 102.938 105.072C102.278 104.921 101.597 104.795 101.28 104.075C102.17 102.977 103.215 102.044 104.317 101.172C105.016 100.864 105.693 100.434 106.422 100.274C107.866 99.9615 107.875 99.2847 107.12 98.2738C110.634 94.5859 114.257 91.0022 117.928 87.4706C118.123 87.2797 118.379 87.1539 118.444 86.8675Z" fill="#F2A069"/>
<path d="M78.8107 98.239C79.6828 98.2347 80.3987 98.6859 81.1492 99.033C81.8521 98.9766 81.5744 99.4452 81.479 99.7185C81.2837 100.283 80.7935 100.643 80.403 101.068C78.8715 102.747 77.0102 104.114 75.7346 106.031C73.5913 107.676 71.2615 108.938 68.6019 109.532C68.116 108.739 68.7711 108.3 69.192 107.853C70.4241 106.548 71.7214 105.307 72.9883 104.035C73.4308 103.589 73.8951 103.159 74.0599 102.517C74.2465 102.079 74.6543 101.94 75.0491 101.779C75.3268 101.671 75.5524 101.497 75.7563 101.285C76.8583 100.361 77.6393 99.1024 78.8107 98.239Z" fill="#FBBA44"/>
<path d="M57.5774 130.271C58.7705 130.306 58.341 130.783 57.8507 131.273C56.0285 133.091 54.2106 134.909 52.3884 136.731C49.9588 139.157 47.5292 141.578 45.1082 144.007C44.7654 144.35 44.3055 144.628 44.3055 145.205C43.4248 145.278 42.5831 145.183 41.8239 144.688C42.2013 143.734 43.1037 143.231 43.7372 142.497C44.0366 142.146 44.5789 141.886 44.0756 141.313C45.6809 141.083 46.8263 140.211 47.8415 138.953C49.2472 137.209 50.7224 135.525 52.0934 133.751C52.2843 133.729 52.3016 134.115 52.3928 133.994C53.2908 132.753 54.5187 131.824 55.4949 130.657C56.1674 130.432 56.7661 129.781 57.5774 130.271Z" fill="#F8B250"/>
<path d="M61.595 160.164C61.2956 159.843 61.4691 159.44 61.4041 159.08C61.0526 158.563 61.4214 158.212 61.7251 157.904C66.0203 153.583 70.3113 149.253 74.6672 144.992C74.7974 144.866 74.9623 144.784 75.1315 144.719C75.7128 144.576 76.2552 144.593 76.6847 145.088C76.8018 145.296 76.8713 145.556 76.7324 145.725C75.7996 146.845 75.1054 148.194 73.7605 148.932C71.8211 149.739 70.923 151.626 69.552 153.019C68.2634 154.329 67.2438 155.886 65.8468 157.101C64.7274 157.722 64.0159 158.789 63.0744 159.6C62.6579 159.96 62.3021 160.537 61.595 160.164Z" fill="#EB927C"/>
<path d="M75.0014 144.931C72.6412 147.335 70.2853 149.747 67.9121 152.146C66.0118 154.064 64.0898 155.964 62.1851 157.873C61.8424 158.216 61.4042 158.511 61.4042 159.08C60.5798 158.958 59.7078 159.266 58.9225 158.802C58.9442 158.602 59.044 158.438 59.1698 158.286C63.5214 153.895 67.9121 149.539 72.2898 145.17C72.7497 144.71 73.1705 144.064 74.0036 144.432C74.342 144.593 74.7411 144.619 75.0014 144.931Z" fill="#ED9479"/>
<path d="M53.8246 154.16C53.7985 154.125 53.7552 154.086 53.7508 154.051C53.7291 152.606 52.9221 152.021 51.5598 152.029C51.6336 151.917 51.729 151.83 51.8548 151.778C53.2258 151.812 54.1803 151.11 55.0871 150.151C56.9441 148.194 58.7663 146.168 60.8315 144.454C63.2958 142.411 65.1093 139.747 67.5997 137.751C67.7255 137.695 67.8557 137.664 67.9902 137.647C68.68 137.699 69.3265 137.868 69.8558 138.35C69.4697 139.977 68.0943 140.732 66.9055 141.647C64.9662 141.903 63.8772 143.291 62.7752 144.688C60.9052 147.049 58.558 149.031 57.1697 151.773C56.4364 152.407 55.7639 153.101 55.0567 153.756C54.7314 154.06 54.4016 154.537 53.8246 154.16Z" fill="#F2A06A"/>
<path d="M69.565 165.831C68.8405 166.195 68.1159 166.03 67.4 165.804C67.2612 165.141 67.8035 164.841 68.1636 164.481C72.1682 160.459 76.1814 156.45 80.2077 152.455C80.6068 152.06 80.9496 151.504 81.6611 151.63C82.1297 152.498 81.8911 153.331 81.5223 154.155C77.9473 157.83 74.2724 161.409 70.6627 165.054C70.3373 165.384 69.9295 165.57 69.565 165.831Z" fill="#E7868E"/>
<path d="M51.9112 151.969C51.794 151.99 51.6812 152.008 51.5641 152.029C51.1172 152.016 50.6486 152.086 50.2755 151.739C49.898 151.157 50.3666 150.819 50.679 150.48C51.3775 149.73 52.1021 149.005 52.8527 148.307C55.356 147.179 56.6186 144.775 58.3844 142.897C59.7641 141.43 60.9876 139.82 62.3412 138.328C63.6732 137.942 64.2849 136.697 65.2655 135.894C65.5909 135.629 65.7037 135.083 66.2677 135.139C66.6929 135.499 66.6321 135.998 66.6625 136.471C66.6582 136.814 66.6365 137.157 66.502 137.482C61.608 142.276 56.8442 147.209 51.9112 151.969Z" fill="#F4A464"/>
<path d="M123.906 131.39C122.882 131.937 121.889 132.545 120.83 133.004C120.015 133.356 119.772 133.833 120.067 134.636C119.199 136.154 117.806 137.191 116.57 138.371C116.335 138.593 116.014 138.679 115.702 138.441C115.628 137.547 116.136 136.814 116.37 136.007C118.999 133.052 121.911 130.367 124.696 127.568C125.668 126.592 126.488 125.429 127.755 124.77C128.215 125.273 128.596 125.824 128.818 126.475C127.455 128.384 125.724 129.928 123.906 131.39Z" fill="#E277A9"/>
<path d="M69.5651 165.831C72.3201 163.032 75.0665 160.229 77.8345 157.444C78.9452 156.325 80.1036 155.253 81.2403 154.16C81.8304 154.324 82.1601 154.702 82.2208 155.314C81.4876 156.39 80.9366 157.687 79.3226 157.696C77.3312 159.336 75.9298 161.509 74.19 163.379C72.9275 164.737 71.5001 165.748 69.5651 165.831Z" fill="#E68491"/>
<path d="M81.5614 151.708C80.5939 152.311 79.8953 153.214 79.1057 154.008C75.1923 157.93 71.3005 161.869 67.4001 165.805C66.7883 165.822 66.233 165.657 65.7384 165.293C66.3068 164.789 66.9142 164.334 67.4825 163.83C68.1203 163.271 68.3676 162.728 67.9337 161.96C71.4003 161.7 72.5631 158.585 74.5892 156.559C75.6956 155.453 76.6197 154.164 77.6176 152.949C78.5938 152.459 79.3183 151.661 80.1079 150.94C80.5114 150.572 80.8325 150.008 81.5223 150.09C81.9432 150.619 81.9649 151.157 81.5614 151.708Z" fill="#E8888C"/>
<path d="M118.444 86.8675C118.783 87.2016 118.401 87.3404 118.245 87.4923C114.808 90.9371 111.363 94.3777 107.919 97.8182C107.693 98.0438 107.467 98.2651 107.12 98.2694C106.843 97.8182 106.569 97.367 106.292 96.9114C108.248 94.7291 110.444 92.781 112.457 90.6551C114.392 89.2928 116.379 88.0172 118.444 86.8675Z" fill="#F3A266"/>
<path d="M97.2628 158.177C96.6641 158.164 96.2085 158.325 96.2085 159.036C94.8115 160.902 93.1845 162.529 91.3059 163.909C90.5206 164.316 89.6875 164.217 88.8589 164.143C88.4944 163.54 88.9977 163.214 89.3188 162.889C91.8829 160.29 94.4861 157.73 97.0502 155.131C97.7227 154.45 98.5427 154.368 99.3974 154.285C99.5276 154.285 99.649 154.324 99.7618 154.39C100.096 155.166 99.4148 155.483 99.0546 155.938C98.4559 156.685 97.5014 157.145 97.2628 158.177Z" fill="#E276A9"/>
<path d="M136.914 127.772C137.681 127.251 138.454 126.739 139.222 126.21C139.573 125.972 140.068 125.815 139.885 125.217C140.185 123.906 141.486 122.7 142.623 122.692C142.866 123.026 143.209 123.308 143.187 123.776C143.005 124.366 142.541 124.744 142.12 125.152C138.849 128.323 135.777 131.703 132.362 134.731C132.228 134.853 132.124 135 132.08 135.182C131.438 135.625 130.792 135.634 130.15 135.182C129.998 134.462 130.605 134.163 130.983 133.772C132.931 131.742 134.992 129.829 136.914 127.772Z" fill="#CA6FAA"/>
<path d="M47.2514 126.202C47.7634 126.57 47.3512 126.826 47.1213 127.056C44.3445 129.842 41.5678 132.623 38.7651 135.382C38.4917 135.655 38.0665 135.777 37.7108 135.968C37.6457 135.343 38.4093 134.736 37.7585 134.098C38.6783 133.278 39.7716 132.614 40.2272 131.373C41.0689 130.501 41.9236 129.638 42.6785 128.679C43.4942 127.642 44.492 126.792 45.7286 126.288C46.2101 126.093 46.7221 125.781 47.2514 126.202Z" fill="#FCBF3D"/>
<path d="M75.5828 105.979C75.483 105.385 75.9255 105.085 76.2726 104.738C77.7391 103.268 79.2229 101.81 80.672 100.326C81.0017 99.9875 81.6135 99.6925 81.1536 99.033C82.6721 98.1393 84.1256 97.111 85.874 96.6685C86.3903 97.4234 85.7699 97.8442 85.3577 98.2781C84.1082 99.584 82.8153 100.851 81.5267 102.118C80.9757 102.66 80.4811 103.241 80.0863 103.905C78.6849 104.825 77.3139 105.797 75.5828 105.979Z" fill="#FAB847"/>
<path d="M127.759 124.765C126.336 126.583 124.574 128.08 122.956 129.716C120.865 131.837 118.709 133.894 116.583 135.981C116.11 135.677 116.01 135.239 116.105 134.723C117.377 132.961 119.09 131.625 120.561 130.054C121.051 129.529 121.598 129.052 121.789 128.314C122.366 127.273 123.776 127.221 124.336 126.158C124.948 125.624 125.525 125.06 126.119 124.514C126.453 124.206 126.757 123.681 127.364 124.045C127.499 124.288 127.629 124.527 127.759 124.765Z" fill="#E277A7"/>
<path d="M99.4494 154.511C98.0394 154.563 97.15 155.457 96.2389 156.398C94.0826 158.62 91.8655 160.78 89.6832 162.976C89.3448 163.314 88.8806 163.583 88.8545 164.151C88.2818 164.247 87.7829 163.965 87.2536 163.835C87.1885 163.184 87.7135 162.889 88.0779 162.516C88.7374 161.835 89.4402 161.192 89.8698 160.325C90.9761 159.735 91.9783 159.041 92.4426 157.8C93.6617 156.242 94.972 154.78 96.651 153.687C97.5535 154.06 98.6425 153.817 99.4494 154.511Z" fill="#E277A7"/>
<path d="M102.959 104.79C103.32 104.79 103.675 104.769 103.953 104.482C106.252 102.105 108.739 99.9137 110.895 97.3973C111.385 97.8746 111.676 98.4733 111.949 99.0894C112.097 99.7575 111.546 100.044 111.199 100.417C110.092 101.601 108.838 102.647 107.862 103.962C106.903 104.665 105.797 105.059 104.66 105.302C104.061 105.428 103.302 105.684 102.959 104.79Z" fill="#F19E6D"/>
<path d="M79.9126 103.766C80.1599 102.782 80.9756 102.235 81.6264 101.567C82.7891 100.378 83.9736 99.2109 85.1537 98.0395C85.5398 97.6577 85.9563 97.2976 85.8652 96.6728C86.017 96.6555 86.1732 96.6381 86.3251 96.6208C87.2015 96.521 88.451 96.1044 88.8328 96.8116C89.3101 97.6924 88.0345 98.2391 87.4922 98.9115C87.0974 99.4018 86.5767 99.7966 86.4075 100.439C84.4855 102.009 82.429 103.341 79.9126 103.766Z" fill="#FAB64B"/>
<path d="M132.076 135.178C131.863 135.031 131.937 134.879 132.076 134.744C135.777 131.087 139.482 127.429 143.183 123.776C143.474 124.115 143.86 124.384 143.951 124.861C141.899 127.104 139.682 129.182 137.534 131.334C137.252 131.616 136.901 131.833 136.723 132.21C135.282 133.373 133.642 134.219 132.076 135.178Z" fill="#C76FAA"/>
<path d="M123.906 131.391C125.412 129.62 127.061 127.989 128.822 126.475C129.555 127.403 130.145 128.423 130.683 129.477C129.985 130.549 129.312 131.655 127.915 131.946C126.575 130.197 126.575 130.202 124.535 131.169C124.332 131.26 124.115 131.317 123.906 131.391Z" fill="#E075AB"/>
<path d="M25.8663 120.8C25.5236 120.783 25.272 120.952 25.0333 121.177C23.0723 123.03 21.3281 125.104 19.2152 126.8C19.0721 126.917 19.0677 127.208 18.9983 127.421C18.0351 126.366 18.5948 125.468 19.2933 124.588C21.198 122.622 23.1634 120.713 25.1071 118.787C25.3544 118.539 25.619 118.262 26.0399 118.37C26.6516 119.225 26.5345 120.032 25.8663 120.8Z" fill="#FDC73B"/>
<path d="M37.4766 94.7377C38.9343 92.2994 40.3574 89.8351 41.8716 87.4272C42.7263 86.0735 43.7025 86.1082 45.4336 87.3924C43.0951 89.796 40.7088 92.1476 38.3139 94.4904C38.0927 94.703 37.8323 94.92 37.4766 94.7377Z" fill="#FFEC4C"/>
<path d="M34.2876 106.782C33.524 108.76 32.3005 110.478 31.1161 112.201C30.4002 113.242 29.3329 113.116 28.2743 112.11C27.9619 111.602 28.296 111.246 28.5997 110.929C30.0661 109.411 31.563 107.914 33.0858 106.448C33.3765 106.17 33.7149 105.862 34.1531 106.066C34.4612 106.205 34.3831 106.517 34.2876 106.782Z" fill="#FFD341"/>
<path d="M44.0322 141.469C44.2014 141.725 45.1125 141.66 44.362 142.306C43.4812 143.061 42.8044 144.033 41.8195 144.684C40.5526 144.333 39.5981 143.569 38.8779 142.489C39.5548 141.369 40.3574 140.384 41.633 139.894C42.492 140.324 43.3424 140.779 44.0322 141.469Z" fill="#FAB64B"/>
<path d="M90.7723 96.7031C92.2604 96.881 93.7009 97.2411 95.1022 97.7704C95.2801 97.9657 95.2931 98.213 95.1456 98.3865C94.2605 99.4365 93.5056 100.651 92.0392 101.029C90.9979 100.977 89.974 100.82 89.0108 100.395C88.4381 99.5536 89.2971 99.2542 89.6616 98.8117C90.1822 98.1696 90.9762 97.7053 90.7723 96.7031Z" fill="#F8B053"/>
<path d="M78.8107 98.239C78.0688 99.558 76.9972 100.578 75.8344 101.523C75.4179 101.857 74.8452 101.74 74.4113 102.018C73.5002 102.148 72.6108 102.521 71.6693 102.27C71.2268 101.992 71.4394 101.758 71.7431 101.588C72.8234 100.99 73.4178 99.879 74.3549 99.1371C75.0491 98.5861 74.6066 98.2954 74.138 97.9831C75.7259 97.5622 77.2878 97.6012 78.8107 98.239Z" fill="#FBBD40"/>
<path d="M97.2628 158.177C96.5903 157.756 97.1153 157.496 97.3799 157.171C98.1305 156.246 99.302 155.678 99.7228 154.468C100.317 153.565 101.25 152.962 101.862 152.073C103.198 151.062 104.252 149.756 105.48 148.632C106.096 148.068 106.734 147.548 107.602 148.211C104.73 151.118 101.857 154.025 98.9896 156.936C98.5817 157.349 98.2086 157.8 97.8225 158.229C97.6359 158.212 97.4494 158.195 97.2628 158.177Z" fill="#E075AA"/>
<path d="M138.814 116.457C139.547 117.49 140.246 118.539 140.771 119.698C139.877 120.553 139.152 121.594 138.011 122.171C137.222 121.169 136.592 120.075 136.037 118.93C136.779 117.893 137.465 116.8 138.814 116.457Z" fill="#E075AB"/>
<path d="M115.737 138.419C116.96 138.085 117.485 136.918 118.379 136.189C118.969 135.707 119.503 135.152 120.062 134.631C120.301 135.46 120.553 136.289 120.119 137.13C120.097 136.822 120.075 136.51 120.054 136.198C119.95 136.107 119.845 136.02 119.741 135.929C119.16 136.597 118.626 137.313 117.993 137.924C115.498 140.337 113.212 142.962 110.539 145.187C110.326 144.983 110.3 144.719 110.3 144.445C110.335 143.69 110.89 143.261 111.35 142.766C112.63 141.374 114.166 140.215 115.251 138.632C115.372 138.48 115.511 138.35 115.737 138.419Z" fill="#E075AA"/>
<path d="M37.4766 94.7377C39.7631 92.8591 41.6894 90.6117 43.8197 88.5682C44.3099 88.0996 44.7915 87.6441 45.4337 87.3924C45.7851 87.4575 46.0627 87.6441 46.2797 87.9304C43.2036 91.0152 40.1188 94.0913 37.0254 97.1587C36.7217 97.458 36.444 97.8832 35.8973 97.7227C36.0275 96.5209 36.8475 95.6792 37.4766 94.7377Z" fill="#FFE946"/>
<path d="M34.2877 106.782C34.2183 106.482 34.0881 105.975 33.7497 106.326C31.9014 108.231 29.6974 109.806 28.2743 112.11C27.0856 110.622 28.4132 109.663 29.0293 108.556C30.153 107.597 31.0901 106.448 32.1791 105.45C32.5609 105.103 32.8776 104.599 33.5197 104.738C34.3007 105.224 34.7129 105.845 34.2877 106.782Z" fill="#FFD841"/>
<path d="M41.6547 140.033C40.557 140.658 39.9409 141.825 38.878 142.493C38.1361 141.734 37.7065 140.827 37.5547 139.781C38.3964 139.638 38.7478 138.875 39.3075 138.38C39.9453 137.82 40.4659 137.113 41.2989 136.796C41.5983 137.855 41.6243 138.944 41.6547 140.033Z" fill="#FBBA44"/>
<path d="M136.723 132.215C136.423 132.011 136.61 131.842 136.766 131.686C138.957 129.495 141.148 127.304 143.352 125.13C143.495 124.987 143.747 124.952 143.951 124.865C144.142 125.073 144.315 125.29 144.307 125.594C144.584 126.484 143.916 126.917 143.395 127.386C142.697 128.015 141.903 128.544 141.313 129.295C139.851 130.375 138.328 131.356 136.723 132.215Z" fill="#C26EAA"/>
<path d="M35.8929 97.727C38.8823 94.7855 41.8672 91.8395 44.8652 88.8979C45.2731 88.4944 45.6028 87.9565 46.2753 87.9304C46.3577 87.9261 46.4228 87.9565 46.4749 88.0172C46.8263 88.5422 46.3968 88.8502 46.1148 89.1539C45.4813 89.8307 44.8609 90.5379 44.0539 91.0325C43.9498 91.1714 43.85 91.3146 43.7459 91.4534C41.6807 93.6357 39.5374 95.74 37.4071 97.8572C37.034 98.2303 36.7216 98.7032 36.1446 98.8204C35.7845 98.5254 35.8322 98.1262 35.8929 97.727Z" fill="#FFE644"/>
<path d="M112.461 90.6595C112.678 90.7983 112.613 90.9545 112.47 91.0977C110.582 92.9806 108.691 94.8636 106.791 96.7379C106.678 96.8507 106.461 96.8594 106.292 96.9158C105.636 95.5144 105.771 94.8332 106.968 94.0653C108.782 92.8982 110.626 91.7875 112.461 90.6595Z" fill="#F4A564"/>
<path d="M90.7723 96.7031C91.3363 97.0806 91.4361 97.4797 90.9068 98.0004C90.1996 98.6902 89.5358 99.4234 88.8547 100.139C88.7766 100.235 88.6724 100.282 88.5509 100.291C88.0867 100.235 87.6225 100.2 87.1843 100.426C86.8372 100.53 86.4944 100.773 86.1387 100.452C86.1387 99.1805 87.3535 98.7944 87.9566 97.9613C88.2082 97.6099 88.8416 97.3626 88.7028 96.9418C88.5076 96.3691 87.8481 96.7292 87.3969 96.6597C87.0498 96.6077 86.6853 96.6337 86.3296 96.625C87.8177 96.1217 89.2972 96.4515 90.7723 96.7031Z" fill="#F9B34F"/>
<path d="M26.0356 118.366C24.5214 119.85 22.9942 121.321 21.4974 122.822C20.8249 123.494 20.1264 124.123 19.2933 124.583C20.0786 123.073 20.9333 121.607 21.9225 120.219C22.6471 119.62 23.2762 118.921 23.9227 118.244C24.3088 117.837 24.6906 117.463 25.3067 117.798C25.6668 117.837 25.9097 118.028 26.0356 118.366Z" fill="#FECB3F"/>
<path d="M36.1489 98.829C38.4267 96.2302 40.9995 93.922 43.4031 91.449C43.5116 91.3406 43.6374 91.3319 43.7459 91.4577C43.1298 92.7072 42.3922 93.883 41.5809 95.0154C40.3834 96.2302 39.2163 97.4754 37.9798 98.6468C37.611 98.9939 37.3204 99.5406 36.6565 99.3757C36.3875 99.2846 36.214 99.1111 36.1489 98.829Z" fill="#FFE244"/>
<path d="M115.758 92.8808C117.06 90.6204 119.299 89.206 120.895 87.2102C121.516 87.6701 121.785 88.3556 122.093 89.0194C121.529 89.7136 120.813 90.2516 120.184 90.8851C119.811 91.2625 119.386 91.4881 118.93 90.9718C117.871 91.6053 116.817 92.243 115.758 92.8808Z" fill="#F29F6C"/>
<path d="M136.914 127.772C136.987 128.427 136.458 128.714 136.094 129.091C134.115 131.126 132.128 133.152 130.145 135.182C129.868 135.109 129.69 134.926 129.594 134.657C129.252 133.95 129.824 133.599 130.189 133.191C131.195 132.067 132.384 131.126 133.408 130.011C134.501 129.147 135.69 128.432 136.914 127.772Z" fill="#CF70AA"/>
<path d="M92.0739 100.734C93.4275 100.096 94.3864 99.0547 95.1066 97.7705C95.8702 97.9137 96.6121 98.1262 97.2889 98.5211C97.6013 98.9506 97.3453 99.2977 97.072 99.5797C96.3301 100.335 95.6966 101.215 94.7291 101.723C93.7355 101.671 92.716 101.706 92.0739 100.734Z" fill="#F6AC59"/>
<path d="M122.909 90.3601C123.364 90.8373 123.646 91.4144 123.911 92.0088C123.898 93.2583 122.514 94.69 121.264 94.7421C120.887 94.1087 120.509 93.4752 120.132 92.8374C120.817 91.7441 121.494 90.6377 122.909 90.3601Z" fill="#F09975"/>
<path d="M45.7112 147.105C46.6613 146.862 47.0692 145.96 47.7677 145.413C48.2189 145.057 48.4836 144.454 49.1517 144.393C49.7287 145.062 49.681 145.873 49.681 146.675C48.9435 147.799 48.1755 148.884 46.6744 149.044C46.145 148.498 45.837 147.847 45.7112 147.105Z" fill="#F6AC59"/>
<path d="M94.8289 101.536C95.4623 100.378 96.894 99.8704 97.2845 98.5167C98.1826 98.5601 98.8768 99.1719 99.7098 99.3931C99.072 100.925 98.0872 102.061 96.3647 102.387C95.766 102.265 95.0328 102.374 94.8289 101.536Z" fill="#F5A95D"/>
<path d="M46.67 149.044C47.8285 148.541 48.514 147.422 49.5813 146.797C50.3058 146.905 50.5922 147.509 50.9609 148.02C50.5791 149.413 49.2732 150.606 48.1191 150.628C47.4944 150.229 46.9737 149.734 46.67 149.044Z" fill="#F5A95C"/>
<path d="M124.744 93.3754C125.221 93.9394 125.62 94.5555 125.88 95.254C125.499 96.1695 124.683 96.7032 124.002 97.3496C123.698 97.636 123.312 97.8095 122.913 97.4581C122.6 96.9201 122.288 96.3821 121.976 95.8441C122.687 94.7855 123.36 93.6791 124.744 93.3754Z" fill="#ED957A"/>
<path d="M67.938 162.104C68.9836 162.329 69.2222 162.754 68.2678 163.457C67.4261 164.073 67.0226 165.288 65.7383 165.293C65.183 165.193 64.7144 164.932 64.3586 164.49C65.0572 163.318 66.0334 162.425 67.1397 161.652C67.4955 161.644 67.7992 161.731 67.938 162.104Z" fill="#E98A8A"/>
<path d="M109.25 151.457C108.652 151.396 108.86 151.14 109.12 150.888C110.778 149.266 112.439 147.647 114.101 146.029C113.567 148.806 112.005 150.658 109.25 151.457Z" fill="#DA74AB"/>
<path d="M61.595 160.164C62.5798 160.03 62.9616 159.11 63.6428 158.585C64.363 158.034 64.7535 157.075 65.7601 156.871C66.003 157.704 65.5171 158.433 65.426 159.223C64.4932 160.294 63.7599 161.592 62.2588 162.021C61.8466 161.47 61.6904 160.828 61.595 160.164Z" fill="#EB917F"/>
<path d="M122.908 97.4537C123.863 97.5015 124.18 96.6337 124.778 96.1695C125.156 95.8788 125.512 95.5578 125.88 95.2541C126.262 95.6142 126.514 96.048 126.657 96.5513C126.666 97.7401 125.49 99.059 124.132 99.3801C123.724 98.738 123.316 98.0959 122.908 97.4537Z" fill="#EB927E"/>
<path d="M114.413 103.103C114.938 103.584 115.138 104.261 115.476 104.855C115.728 105.168 115.581 105.467 115.368 105.68C114.6 106.439 114.045 107.424 113.008 107.897C112.192 107.506 111.797 106.851 111.789 105.953C112.478 104.834 113.494 104.014 114.413 103.103Z" fill="#ED957A"/>
<path d="M62.2589 162.021C63.2438 161.119 64.233 160.216 65.2179 159.314C65.912 159.67 65.9598 160.381 66.155 161.01C65.4435 162.143 64.8708 163.44 63.2134 163.423C62.7535 163.054 62.4325 162.585 62.2589 162.021Z" fill="#EA8E83"/>
<path d="M114.413 103.103C113.923 104.374 112.86 105.116 111.845 105.901C111.021 105.649 110.704 105.059 110.73 104.235C111.589 103.302 112.179 102.053 113.607 101.779C113.962 102.17 114.266 102.586 114.413 103.103Z" fill="#EF9877"/>
<path d="M116.609 106.66C117.112 107.133 117.32 107.78 117.628 108.37C116.978 109.498 116.127 110.413 114.886 110.904C114.062 110.608 113.819 109.94 113.741 109.159C114.544 108.153 115.173 106.942 116.609 106.66Z" fill="#EA9082"/>
<path d="M48.1191 150.628C49.334 150.068 50.1887 149.135 50.8221 147.986C51.6465 147.682 52.3276 148.038 52.9958 148.454C52.2886 149.717 50.7397 150.281 50.2711 151.739C49.4337 151.604 48.7439 151.183 48.1191 150.628Z" fill="#F4A661"/>
<path d="M118.466 109.667C119.034 110.179 119.177 110.947 119.611 111.541C118.895 112.639 118.097 113.65 116.821 114.153C116.075 113.828 115.824 113.16 115.646 112.444C116.344 111.272 117.338 110.396 118.466 109.667Z" fill="#E98B88"/>
<path d="M59.2435 158.503C59.135 158.602 59.0309 158.702 58.9224 158.802C58.1328 158.737 57.4212 158.49 56.8225 157.952C57.8117 156.91 58.7185 155.787 59.9593 155.01C60.5147 154.875 61.0613 154.841 61.5993 155.084C62.1634 155.63 61.621 155.938 61.3217 156.277C60.6448 157.036 59.8205 157.648 59.2435 158.503Z" fill="#EF9877"/>
<path d="M96.4169 102.087C98.0439 101.836 98.6599 100.348 99.7099 99.3931C100.3 99.5537 100.881 99.7402 101.38 100.105C100.994 101.623 99.8314 102.413 98.5602 103.107C97.7532 102.968 96.8507 103.02 96.4169 102.087Z" fill="#F4A760"/>
<path d="M107.871 103.68C108.274 102.452 109.446 101.883 110.214 100.964C110.76 100.313 111.368 99.7098 111.945 99.0851C112.257 99.341 112.435 99.6751 112.531 100.061C112.843 100.812 112.296 101.22 111.871 101.654C111.346 102.192 110.847 102.769 110.183 103.159C109.42 103.38 108.769 104.087 107.871 103.68Z" fill="#F09D70"/>
<path d="M118.466 109.667C117.75 110.739 116.713 111.489 115.815 112.379C115.016 112.136 114.682 111.611 114.852 110.782C115.776 109.979 116.704 109.177 117.628 108.37C118.088 108.682 118.249 109.194 118.466 109.667Z" fill="#EA8D85"/>
<path d="M116.609 106.66C115.689 107.48 114.765 108.305 113.845 109.125C113.081 108.981 112.799 108.53 112.982 107.784C113.724 106.734 114.947 106.092 115.472 104.86C115.997 105.367 116.331 105.996 116.609 106.66Z" fill="#EB927E"/>
<path d="M122.908 90.3601C121.811 90.9935 121.173 92.1433 120.132 92.8375C119.733 92.217 119.329 91.5923 118.93 90.9719C119.507 91.2539 119.789 90.8113 120.153 90.5033C120.774 89.9783 121.147 89.1236 122.093 89.0195C122.574 89.3362 122.514 89.987 122.908 90.3601Z" fill="#F09D70"/>
<path d="M74.1423 97.9787C74.5545 98.0828 75.1619 97.7618 75.3658 98.213C75.5784 98.6859 75.0057 98.9766 74.6933 99.2282C73.5826 100.113 73.0099 101.623 71.4697 102.014C71.2094 102.296 70.9404 102.287 70.6541 102.053C70.7929 101.15 71.6216 100.79 72.1379 100.187C72.7496 99.4712 73.574 98.9289 73.9124 97.996C73.9861 97.9527 74.0642 97.944 74.1423 97.9787Z" fill="#FCBF3E"/>
<path d="M138.814 116.457C137.764 117.142 137.135 118.297 136.037 118.93C135.66 118.566 135.408 118.127 135.26 117.628C135.551 116.322 136.853 115.116 137.989 115.095C138.267 115.546 138.541 116.001 138.814 116.457Z" fill="#E277A9"/>
<path d="M59.7859 155.266C58.8661 156.233 58.1242 157.401 56.8226 157.952C56.2846 157.7 55.7857 157.396 55.4646 156.867C56.3236 155.969 57.1003 154.988 58.1849 154.333C58.8444 154.429 59.378 154.741 59.7859 155.266Z" fill="#F09A73"/>
<path d="M123.637 118.058C124.002 118.448 124.319 118.865 124.457 119.394C124.444 120.596 123.182 121.958 121.785 122.284C121.225 121.958 120.887 121.485 120.835 120.826C121.798 119.937 122.344 118.618 123.637 118.058Z" fill="#E47F9B"/>
<path d="M53.8245 154.16C54.7269 154.016 55.0696 153.17 55.6944 152.68C56.1456 152.329 56.4146 151.717 57.1045 151.717C57.6121 152.12 57.6815 152.654 57.5427 153.244C56.6966 154.238 56.0632 155.483 54.6141 155.791C54.1759 155.331 53.9069 154.793 53.8245 154.16Z" fill="#F29F6E"/>
<path d="M36.6609 99.3757C38.0493 98.3301 39.1339 96.9678 40.4008 95.7964C40.7522 95.471 41.0169 95.0154 41.5852 95.0154C40.8303 96.291 40.1318 97.6012 39.3074 98.8334C38.648 99.8096 37.7369 100.152 36.6609 99.3757Z" fill="#FFDE46"/>
<path d="M83.1363 160.95C82.6981 160.581 82.2643 160.212 81.826 159.843C82.4942 158.733 83.3966 157.869 84.5333 157.244C85.2449 157.37 85.8263 157.648 85.9651 158.446C85.1972 159.483 84.5464 160.646 83.1363 160.95Z" fill="#E47F9B"/>
<path d="M133.408 130.011C132.926 131.386 131.586 132.02 130.744 133.083C130.341 133.59 129.646 133.89 129.594 134.653C129.221 134.267 128.917 133.837 128.766 133.317C129.113 131.968 130.384 130.813 131.521 130.822C132.315 130.935 132.727 130.158 133.408 130.011Z" fill="#D472AB"/>
<path d="M123.637 118.058C122.726 118.939 122.188 120.179 120.991 120.787C120.318 120.609 120.11 120.08 119.997 119.477C120.744 118.357 121.637 117.39 122.817 116.717C123.212 117.09 123.425 117.576 123.637 118.058Z" fill="#E58198"/>
<path d="M104.317 101.163C103.48 102.309 102.634 103.441 101.263 104.009C100.656 104.33 100.23 104.105 99.9181 103.558C100.556 102.33 101.515 101.424 102.708 100.747C103.241 100.886 103.779 101.024 104.317 101.163Z" fill="#F3A367"/>
<path d="M124.132 99.3801C125.091 98.5427 126.215 97.8485 126.657 96.5513C127.399 97.3279 127.772 98.2043 127.165 99.2109C126.466 100.365 125.295 100.413 124.132 99.3801Z" fill="#EB9183"/>
<path d="M84.5767 157.392C83.6613 158.208 82.7415 159.028 81.8261 159.843C81.3401 159.6 80.9713 159.223 80.6416 158.802C81.2447 157.657 82.3293 156.941 83.1493 155.986C83.978 156.099 84.4553 156.563 84.5767 157.392Z" fill="#E58198"/>
<path d="M109.966 102.933C110.951 102.092 112.084 101.384 112.531 100.066C113.077 100.521 113.233 101.22 113.607 101.784C112.682 102.604 111.763 103.424 110.838 104.244C110.084 104.118 109.875 103.623 109.966 102.933Z" fill="#F09A74"/>
<path d="M122.817 116.717C122.054 117.737 121.099 118.579 120.162 119.433C119.455 119.286 119.229 118.769 119.173 118.127C119.924 117.017 120.804 116.045 121.993 115.381C122.392 115.745 122.605 116.231 122.817 116.717Z" fill="#E58395"/>
<path d="M116.808 114.014C117.746 113.19 118.678 112.361 119.616 111.537C120.036 111.901 120.262 112.379 120.444 112.886C119.711 113.984 118.934 115.034 117.611 115.498C116.973 115.207 116.704 114.713 116.808 114.014Z" fill="#E8898C"/>
<path d="M133.378 114.565C133.096 114.118 132.818 113.667 132.536 113.22C133.165 112.079 134.193 111.298 135.083 110.387C135.46 110.713 135.677 111.138 135.846 111.593C136.011 112.808 134.853 114.21 133.378 114.565Z" fill="#E37CA1"/>
<path d="M121.993 115.377C121.216 116.383 120.288 117.242 119.333 118.075C118.618 117.897 118.375 117.385 118.37 116.709C119.225 115.75 119.811 114.478 121.277 114.236C121.624 114.544 121.837 114.943 121.993 115.377Z" fill="#E78592"/>
<path d="M129.59 108.348C129.035 107.671 128.579 106.968 128.983 106.036C129.568 104.678 130.87 104.482 132.119 105.563C131.499 106.695 130.475 107.459 129.59 108.348Z" fill="#E78794"/>
<path d="M121.277 114.231C120.184 114.873 119.537 116.006 118.509 116.717C117.876 116.483 117.459 116.114 117.68 115.359C118.605 114.535 119.524 113.711 120.449 112.891C120.943 113.199 120.882 113.854 121.277 114.231Z" fill="#E7878F"/>
<path d="M125.303 120.765C125.659 121.169 125.972 121.598 126.137 122.115C125.395 123.217 124.644 124.301 123.273 124.713C122.744 124.496 122.601 124.041 122.548 123.533C123.021 122.171 123.828 121.138 125.303 120.765Z" fill="#E37CA1"/>
<path d="M129.59 108.348C130.059 107.081 131.148 106.374 132.119 105.563C132.51 105.849 132.696 106.261 132.857 106.695C132.436 108.053 131.516 108.921 130.193 109.381C129.946 109.064 129.651 108.773 129.59 108.348Z" fill="#E58395"/>
<path d="M83.1493 156.121C82.6243 157.305 81.5917 158.021 80.6416 158.806C80.1383 158.516 79.6567 158.195 79.3226 157.7C80.5808 157.262 81.2403 156.151 82.069 155.231C82.7241 155.171 83.0148 155.548 83.1493 156.121Z" fill="#E58295"/>
<path d="M85.0496 162.572C84.7632 162.329 84.4769 162.086 84.1906 161.848C84.4465 160.407 85.5789 159.765 86.6939 159.106C87.3621 159.106 87.7612 159.44 87.9218 160.073C87.297 161.284 86.6722 162.498 85.0496 162.572Z" fill="#E37CA1"/>
<path d="M91.3059 163.913C92.8418 162.19 94.4471 160.537 96.2086 159.041C95.6055 161.7 93.9004 163.253 91.3059 163.913Z" fill="#E178AC"/>
<path d="M89.9436 160.429C89.9957 161.518 88.9935 161.878 88.4555 162.551C88.091 163.006 87.6615 163.401 87.258 163.826C86.8849 163.657 86.5161 163.492 86.143 163.323C85.8523 162.95 86.0779 162.637 86.3165 162.39C87.0801 161.609 87.7353 160.702 88.7331 160.173C89.1757 160.077 89.6052 160.03 89.9436 160.429Z" fill="#E278A5"/>
<path d="M54.6185 155.791C55.6988 155.131 56.3063 153.938 57.4256 153.322C58.033 153.47 58.1241 153.943 58.1588 154.459C57.3215 155.331 56.6794 156.416 55.4689 156.867C55.0307 156.628 54.8008 156.229 54.6185 155.791Z" fill="#F09D70"/>
<path d="M33.5197 104.738C32.2701 105.606 31.3503 106.825 30.2353 107.84C29.8839 108.161 29.6106 108.621 29.0292 108.556C29.6409 107.511 30.2223 106.443 30.8731 105.424C31.5239 104.409 32.4176 104.114 33.5197 104.738Z" fill="#FFDD46"/>
<path d="M102.703 100.747C101.866 101.727 101.007 102.682 99.9527 103.441C99.328 103.688 98.829 103.619 98.5947 102.899C99.6534 102.096 100.586 101.172 101.384 100.105C101.922 100.118 102.296 100.465 102.703 100.747Z" fill="#F4A564"/>
<path d="M63.2133 163.423C64.5192 163.058 65.1049 161.843 66.0334 161.032C66.7926 160.754 66.9618 161.284 67.1224 161.826C66.246 162.759 65.4173 163.739 64.3586 164.49C63.8727 164.251 63.4389 163.948 63.2133 163.423Z" fill="#EA8D87"/>
<path d="M49.1951 94.126C48.8307 93.883 48.4662 93.6401 48.1018 93.3971C48.0888 92.2691 49.2342 91.0109 50.5878 90.6551C51.1041 90.8069 51.5206 91.1237 51.9068 91.4881C51.0434 92.4079 50.1887 93.3364 49.1951 94.126Z" fill="#FFD141"/>
<path d="M46.2103 92.2257C45.8458 91.9871 45.477 91.7441 45.1126 91.5055C45.1039 90.3774 46.2493 89.1106 47.5943 88.7591C48.1106 88.9153 48.5401 89.2147 48.9219 89.5878C48.0542 90.5076 47.1995 91.4361 46.2103 92.2257Z" fill="#FFDE45"/>
<path d="M131.521 130.822C130.262 131.282 129.586 132.375 128.766 133.317C128.397 132.913 128.089 132.466 127.915 131.941C128.839 131.117 129.759 130.297 130.683 129.473C130.961 129.924 131.239 130.375 131.521 130.822Z" fill="#DA73AB"/>
<path d="M138.016 122.167C138.849 121.247 139.504 120.127 140.775 119.694C141.009 120.058 141.248 120.427 141.482 120.791C140.684 121.785 139.742 122.635 138.835 123.52C138.471 123.125 138.154 122.7 138.016 122.167Z" fill="#DA74AB"/>
<path d="M130.193 109.381C131.165 108.565 132.08 107.697 132.857 106.695C133.174 106.955 133.352 107.294 133.443 107.689C133.447 108.882 132.241 110.222 130.896 110.517C130.54 110.214 130.349 109.806 130.193 109.381Z" fill="#E58198"/>
<path d="M46.2102 92.2257C46.8567 91.0803 47.6984 90.1431 48.9218 89.5878C49.3774 89.7527 49.7809 90 50.1193 90.3514C49.2039 91.2235 48.4316 92.2604 47.2818 92.8721C46.9217 92.6596 46.566 92.4426 46.2102 92.2257Z" fill="#FFD842"/>
<path d="M136.658 112.925C136.987 113.203 137.161 113.572 137.282 113.971C136.562 115.021 135.851 116.084 134.506 116.427C134.189 116.166 134.011 115.819 133.916 115.429C134.232 114.101 135.53 112.917 136.658 112.925Z" fill="#E279A6"/>
<path d="M53.5555 92.5381C52.7311 93.4666 51.9024 94.395 51.0781 95.3235C50.7223 95.0979 50.3709 94.8766 50.0151 94.651C49.6811 94.1781 50.0542 93.8744 50.3188 93.6054C50.9523 92.9676 51.4989 92.2431 52.2105 91.679C52.6574 91.9654 53.1042 92.2518 53.5555 92.5381Z" fill="#FDC63C"/>
<path d="M127.369 124.05C126.579 124.188 126.258 124.922 125.711 125.368C125.299 125.703 125.026 126.232 124.397 126.232C123.872 126.197 123.807 125.798 123.737 125.399C124.397 124.21 125.165 123.143 126.549 122.709C126.822 123.156 127.095 123.603 127.369 124.05Z" fill="#E279A5"/>
<path d="M138.836 123.525C139.374 122.279 140.328 121.442 141.482 120.796C141.69 121.156 141.899 121.516 142.103 121.876C141.4 122.943 140.727 124.045 139.335 124.34C139.17 124.067 139.005 123.794 138.836 123.525Z" fill="#D471AA"/>
<path d="M125.303 120.765C124.34 121.598 123.225 122.297 122.774 123.585C122.049 123.373 121.594 122.982 121.819 122.145C122.956 121.477 123.932 120.652 124.457 119.399C124.826 119.798 125.143 120.236 125.303 120.765Z" fill="#E47D9F"/>
<path d="M134.506 116.427C135.43 115.607 136.358 114.791 137.282 113.971C137.638 114.27 137.838 114.665 137.99 115.09C136.77 115.602 136.05 116.648 135.261 117.624C134.892 117.299 134.666 116.882 134.506 116.427Z" fill="#E278A7"/>
<path d="M124.744 93.3754C123.82 94.1954 122.896 95.0197 121.971 95.8397C121.733 95.471 121.499 95.1065 121.26 94.7377C122.414 94.0913 123.373 93.2496 123.911 92.0044C124.28 92.4079 124.588 92.8461 124.744 93.3754Z" fill="#EE9778"/>
<path d="M132.046 112.383C131.868 112.101 131.694 111.819 131.516 111.533C131.534 110.292 132.961 108.856 134.189 108.851C134.358 109.129 134.532 109.402 134.701 109.68C134.098 110.856 133.174 111.719 132.046 112.383Z" fill="#E47E9C"/>
<path d="M86.7763 159.271C85.7654 159.978 84.9107 160.841 84.1949 161.843C83.7523 161.652 83.3965 161.357 83.1362 160.95C84.0517 160.13 84.9715 159.314 85.8869 158.494C86.477 158.42 86.7113 158.75 86.7763 159.271Z" fill="#E47D9E"/>
<path d="M132.046 112.383C132.809 111.363 133.751 110.517 134.701 109.68C134.827 109.914 134.952 110.149 135.078 110.383C134.623 111.676 133.512 112.387 132.531 113.216C132.375 112.943 132.21 112.665 132.046 112.383Z" fill="#E37C9D"/>
<path d="M47.5942 88.7591C46.6657 89.5834 45.5593 90.2473 45.1125 91.5055C44.761 91.3493 44.4096 91.1931 44.0538 91.0369C44.5701 89.796 46.0496 89.3318 46.4748 88.0215C46.8479 88.2688 47.221 88.5118 47.5942 88.7591Z" fill="#FFE246"/>
<path d="M52.2062 91.679C52.1281 92.5511 51.3341 92.8938 50.8656 93.4752C50.5619 93.8527 50.0629 94.0869 50.0152 94.651C49.7419 94.4774 49.4685 94.2995 49.1952 94.126C49.8416 92.9806 50.6877 92.0391 51.9068 91.4881C52.011 91.5532 52.1064 91.6183 52.2062 91.679Z" fill="#FECB40"/>
<path d="M134.189 108.851C133.005 109.45 132.098 110.335 131.516 111.533C131.182 111.268 131.03 110.895 130.892 110.513C131.876 109.693 132.974 108.973 133.438 107.684C133.816 107.997 134.024 108.409 134.189 108.851Z" fill="#E5829C"/>
<path d="M136.658 112.925C135.412 113.398 134.723 114.479 133.916 115.429C133.634 115.207 133.438 114.925 133.378 114.565C134.302 113.659 135.629 113.086 135.846 111.589C136.245 111.958 136.454 112.439 136.658 112.925Z" fill="#E37CA4"/>
<path d="M141.313 129.295C141.508 128.523 142.016 128.011 142.649 127.555C143.356 127.048 144.129 126.562 144.307 125.594C144.866 126.531 144.428 127.264 143.712 127.807C142.966 128.371 142.116 128.805 141.313 129.295Z" fill="#BF71AC"/>
<path d="M88.5899 160.377C87.9738 161.527 86.5898 162.039 86.1429 163.327C85.7177 163.167 85.3446 162.932 85.0496 162.572C86.2991 162.086 87.015 161.028 87.7959 160.038C88.1647 159.908 88.5161 159.817 88.5899 160.377Z" fill="#E27BA4"/>
<path d="M139.339 124.34C140.263 123.52 141.183 122.696 142.107 121.876C142.276 122.149 142.45 122.418 142.619 122.692C141.391 123.19 140.68 124.249 139.881 125.217C139.599 124.987 139.408 124.7 139.339 124.34Z" fill="#D071AB"/>
<path d="M126.549 122.709C125.603 123.551 124.648 124.392 123.893 125.425C123.325 125.39 123.225 125.065 123.369 124.588C124.293 123.763 125.212 122.943 126.137 122.119C126.275 122.314 126.41 122.514 126.549 122.709Z" fill="#E27BA4"/>
<path d="M47.2776 92.8765C48.1149 91.9176 48.8178 90.7983 50.115 90.3557C50.2756 90.4555 50.4318 90.5553 50.588 90.6551C49.6552 91.4751 48.5575 92.1432 48.1019 93.3971C47.8286 93.2236 47.5553 93.05 47.2776 92.8765Z" fill="#FFD540"/>
<path d="M25.3067 117.798C24.773 117.719 24.5387 118.093 24.222 118.422C23.5495 119.125 22.9812 119.993 21.9269 120.219C22.3087 119.572 22.6211 118.865 23.094 118.292C23.658 117.611 24.4042 117.225 25.3067 117.798Z" fill="#FFD044"/>
<path d="M101.922 152.259C101.94 151.708 101.957 151.162 101.975 150.611C102.742 149.27 103.792 148.203 105.137 147.435C106.062 148.02 107.09 148.016 108.127 147.955C107.949 148.038 107.775 148.12 107.597 148.203C106.704 148.029 106.109 148.459 105.471 149.049C104.304 150.133 103.454 151.578 101.922 152.259Z" fill="#E278AA"/>
<path d="M61.3955 134.406C60.5451 134.007 59.6817 133.673 58.7142 133.768C60.2718 133.182 61.4432 132.202 61.9639 130.566C62.7578 130.675 63.3002 131.2 63.8468 131.712C63.4911 133.026 62.4107 133.686 61.3955 134.406Z" fill="#F6AD58"/>
<path d="M50.7354 130.319C49.8981 129.946 49.039 129.677 48.1062 129.742C48.2364 128.835 49.0607 128.471 49.5813 127.881C50.0282 127.373 50.5358 126.922 50.8048 126.284C51.8635 126.549 52.8093 127.008 53.5382 127.846C53.1694 129.221 51.9242 130.319 50.7354 130.319Z" fill="#FBBA44"/>
<path d="M68.4978 109.506C67.283 110.183 66.2461 111.025 65.7385 112.379C64.8143 113.073 64.0204 113.901 63.1917 114.7C62.862 115.021 62.5799 115.498 61.9856 115.359C61.9682 115.199 61.9552 115.043 61.9378 114.882C61.7599 114.201 61.7773 113.515 61.9291 112.83C62.0593 110.287 63.3002 108.305 65.3784 107.025C68.1681 105.307 71.1618 103.931 74.1597 102.599C74.4201 103.241 73.9081 103.545 73.5653 103.897C72.2204 105.263 70.8624 106.617 69.4957 107.962C69.0488 108.409 68.6367 108.864 68.4978 109.506Z" fill="#FBBD3F"/>
<path d="M75.2052 102.014C75.0187 101.719 74.6933 101.866 74.4417 101.766C74.8582 101.406 75.3614 101.545 75.8387 101.519C75.7346 101.823 75.5133 101.975 75.2052 102.014Z" fill="#FEDEA7"/>
<path d="M52.1672 133.777C52.0978 133.156 52.0283 132.532 51.9546 131.911C52.4579 131.165 53.1737 130.627 53.7985 129.998C54.1326 129.659 54.5274 129.49 55.0046 129.703C55.291 129.998 55.4559 130.349 55.4689 130.761C54.8485 132.254 53.4991 133.091 52.3928 134.146C52.2887 134.25 52.1975 133.942 52.1672 133.777Z" fill="#F9B54C"/>
<path d="M75.5393 148.702C74.9146 148.693 74.2898 148.68 73.665 148.667C74.8495 147.686 75.8474 146.545 76.6327 145.222C77.0752 145.239 77.457 145.413 77.7781 145.712C77.4917 147.053 76.1381 147.595 75.5393 148.702Z" fill="#EB9381"/>
<path d="M73.3961 142.437C73.7822 143.126 73.9124 143.873 73.8777 144.654C73.2182 144.285 73.0013 144.914 72.6932 145.222C68.5715 149.313 64.4672 153.422 60.3542 157.522C60.0071 157.869 59.6166 158.173 59.2478 158.498C59.391 157.57 60.2674 157.223 60.7707 156.576C61.1134 156.138 61.7121 155.873 61.6818 155.197C62.8879 153.782 64.2025 152.476 65.3783 151.031C66.9489 149.096 68.7884 147.374 69.9469 145.122C70.9534 144.914 71.4307 144.02 72.1379 143.43C72.5457 143.083 72.8928 142.658 73.3961 142.437Z" fill="#EE9778"/>
<path d="M51.9111 151.969C51.9155 151.448 52.3146 151.183 52.6313 150.871C56.8181 146.684 61.0092 142.502 65.2003 138.319C65.5127 138.007 65.7817 137.608 66.3067 137.612C66.7276 137.868 67.2612 137.599 67.669 137.903C64.4107 141.808 60.4886 145.057 56.97 148.706C56.2801 149.422 55.5079 150.064 54.8788 150.828C54.0761 151.791 53.139 152.203 51.9111 151.969Z" fill="#F3A267"/>
<path d="M68.7451 142.228C68.0943 141.964 67.4435 141.703 66.7927 141.443C67.9381 140.588 68.8926 139.543 69.8254 138.471C70.55 138.571 70.9969 139.074 71.4524 139.569C70.9578 140.87 70.1161 141.816 68.7451 142.228Z" fill="#F29E6D"/>
<path d="M67.6647 137.898C67.2091 137.803 66.6798 138.063 66.3024 137.608C66.3154 137.222 66.3284 136.835 66.3414 136.449C66.311 137.612 67.2525 137.625 68.0118 137.855C67.8903 137.872 67.7775 137.885 67.6647 137.898Z" fill="#F3A16C"/>
<path d="M62.5061 138.423C62.6796 137.612 62.7013 136.801 62.5365 135.985C63.6515 135.391 64.1938 134.037 65.5345 133.746C65.8772 134.128 66.0638 134.571 66.0768 135.087C65.387 136.627 64.0333 137.56 62.8098 138.61C62.7838 138.632 62.6102 138.488 62.5061 138.423Z" fill="#F4A861"/>
<path d="M77.7565 153.075C77.9344 152.35 77.93 151.622 77.7608 150.893C78.3986 149.726 79.3314 148.849 80.4508 148.159C80.928 148.689 81.2274 149.3 81.2838 150.016C80.3032 151.257 79.3487 152.537 77.7565 153.075Z" fill="#E98B89"/>
<path d="M119.26 129.664C120.162 129.208 121.065 128.753 121.963 128.293C122.023 128.709 121.98 129.095 121.646 129.408C119.819 131.134 118.192 133.074 116.223 134.653C115.98 134.362 115.732 134.067 115.489 133.777C115.915 132.215 117.368 131.521 118.349 130.427C118.618 130.137 119.03 130.002 119.26 129.664Z" fill="#E278A5"/>
<path d="M95.9308 153.34C96.1261 153.513 96.3213 153.682 96.5166 153.856C95.2497 155.218 93.9785 156.576 92.7116 157.939C92.7029 157.309 92.6942 156.685 92.6855 156.056C93.3537 155.227 94.1694 154.541 94.9156 153.786C95.1803 153.522 95.4493 153.17 95.9308 153.34Z" fill="#E27AA6"/>
<path d="M113.025 139.543C113.945 139.547 114.713 139.126 115.472 138.684C114.782 140.263 113.246 141.1 112.209 142.372C111.654 143.053 110.73 143.448 110.569 144.441C110.396 143.964 110.227 143.487 110.053 143.009C109.758 142.632 109.975 142.302 110.222 142.055C111.107 141.161 111.854 140.111 113.025 139.543Z" fill="#E276A9"/>
<path d="M88.5726 100.122C88.13 100.122 87.6831 100.122 87.2406 100.122C87.6831 99.7879 88.13 99.7879 88.5726 100.122Z" fill="#F8B053"/>
<path d="M70.3894 118.318C72.1725 117.771 73.9557 117.225 75.7389 116.678C76.6457 116.934 76.0556 117.468 75.8343 117.711C74.472 119.182 73.2095 120.765 71.474 121.85C69.9295 122.253 68.4457 122.093 67.0139 121.386C68.1029 120.318 69.0878 119.143 70.3894 118.318Z" fill="#F7AF54"/>
<path d="M85.3229 113.463C86.3468 112.934 87.4358 112.596 88.5638 112.366C89.0498 112.856 89.1105 112.917 88.6549 113.381C87.1538 114.899 85.8088 116.596 83.9736 117.767C82.8846 118.132 81.7999 118.496 80.7109 118.856C80.6415 118.036 81.2316 117.563 81.7088 117.06C82.8802 115.828 84.1081 114.648 85.3229 113.463Z" fill="#F4A760"/>
<path d="M65.7688 115.359C66.3068 116.34 67.0096 117.173 67.9424 117.806C68.129 117.941 68.385 118.132 68.2374 118.34C67.5519 119.29 67.0096 120.401 65.7688 120.791C64.5713 120.179 63.6559 119.286 63.0571 118.075C63.9205 117.134 64.8273 116.231 65.7688 115.359Z" fill="#FAB74B"/>
<path d="M85.323 113.463C85.592 114.084 84.9542 114.188 84.7026 114.47C83.3879 115.945 81.761 117.138 80.7154 118.856C79.6567 119.303 78.5808 119.707 77.4527 119.95C77.2488 119.255 77.7521 118.865 78.1382 118.453C78.9061 117.633 79.7261 116.86 80.5158 116.058C80.8585 115.706 81.2577 115.385 81.249 114.821C82.5463 114.183 83.9303 113.815 85.323 113.463Z" fill="#F5A95D"/>
<path d="M65.7687 115.359C65.196 116.596 64.2849 117.494 63.0571 118.075C62.4193 117.281 62.0722 116.37 61.9897 115.359C62.7881 114.6 63.5994 113.845 64.389 113.073C64.7751 112.7 65.1266 112.292 65.7427 112.379C65.5084 113.372 65.5518 114.366 65.7687 115.359Z" fill="#FBBA45"/>
<path d="M91.8135 111.277C92.6943 110.821 93.5794 110.405 94.5555 111.047C94.6987 111.593 94.2735 111.871 93.9698 112.175C92.8201 113.324 91.7181 114.518 90.4859 115.58C89.4013 115.945 88.3123 116.309 87.2276 116.669C86.8762 116.01 87.4315 115.693 87.7743 115.338C89.0889 113.962 90.4859 112.652 91.8135 111.277Z" fill="#F3A366"/>
<path d="M91.8135 111.277C92.1519 111.75 91.6356 111.88 91.4447 112.084C90.295 113.272 89.1148 114.426 87.9521 115.598C87.644 115.91 87.2406 116.166 87.2275 116.678C86.1429 117.043 85.0582 117.403 83.9779 117.767C85.3923 116.318 86.8197 114.882 88.2124 113.411C88.4597 113.151 89.1452 112.947 88.5638 112.37C89.5791 111.806 90.7115 111.585 91.8135 111.277Z" fill="#F4A563"/>
<path d="M71.4741 121.845C72.728 120.557 73.9905 119.277 75.227 117.971C75.5568 117.624 76.1468 117.333 75.739 116.674C76.802 116.162 77.917 115.793 79.0667 115.533C79.3704 116.275 78.8238 116.7 78.4159 117.134C77.2185 118.392 75.9689 119.598 74.7454 120.826C73.7042 121.325 72.6325 121.724 71.4741 121.845Z" fill="#F6AC58"/>
<path d="M74.7454 120.83C74.7454 120.041 75.4569 119.75 75.8691 119.251C76.906 117.988 78.4549 117.164 79.0666 115.537C79.7782 115.246 80.4724 114.908 81.249 114.817C82.1688 115.06 81.5657 115.433 81.301 115.706C80.3726 116.669 79.4224 117.615 78.4636 118.544C78.0384 118.956 77.6913 119.403 77.457 119.941C76.5806 120.34 75.6912 120.674 74.7454 120.83Z" fill="#F6AB5B"/>
<path d="M100.274 115.88C101.089 116.422 101.866 117.012 102.43 117.828C102.027 119.177 100.829 120.249 99.7185 120.245C99.085 119.702 98.4559 119.156 97.8225 118.613C98.3865 117.476 99.4278 116.765 100.274 115.88Z" fill="#ED9679"/>
<path d="M65.5301 133.746C64.8619 134.38 64.1895 135.009 63.5213 135.647C63.2436 135.911 63.0094 136.302 62.5321 135.989C62.1546 135.464 61.7728 134.935 61.3954 134.41C62.211 133.512 63.0267 132.614 63.8424 131.716C64.6841 132.158 65.1743 132.9 65.5301 133.746Z" fill="#F5AA5C"/>
<path d="M100.274 115.88C99.8443 117.134 98.7292 117.78 97.8268 118.613C97.1847 118.075 96.5469 117.533 95.9048 116.995C96.4731 115.876 97.4884 115.16 98.3605 114.318C99.1154 114.7 99.7445 115.229 100.274 115.88Z" fill="#F09975"/>
<path d="M70.0813 145.161C69.9295 144.537 69.782 143.912 69.6301 143.291C70.2202 142.068 71.2875 141.278 72.2767 140.419C72.8971 140.953 73.2746 141.625 73.3917 142.437C72.7019 143.617 71.5304 144.337 70.628 145.309C70.4414 145.521 70.2202 145.378 70.0813 145.161Z" fill="#F09A75"/>
<path d="M80.4507 148.159C79.6871 149.201 78.7369 150.06 77.7607 150.893C77.4353 150.151 76.8627 149.595 76.3116 149.023C77.2054 148.177 77.9213 147.131 79.071 146.571C79.7175 146.94 80.1513 147.491 80.4507 148.159Z" fill="#EA8D85"/>
<path d="M83.0668 147.153C82.403 146.845 81.9301 146.315 81.4615 145.782C82.069 144.68 83.0495 143.92 83.9649 143.105C84.6244 143.478 85.132 144.029 85.644 144.571C85.3099 145.955 84.4422 146.81 83.0668 147.153Z" fill="#E98B87"/>
<path d="M106.265 121.004C106.886 121.373 107.454 121.798 107.892 122.379C107.554 123.724 106.278 124.874 105.129 124.87C104.595 124.414 104.057 123.958 103.523 123.503C104.4 122.631 105.142 121.607 106.265 121.004Z" fill="#E98B87"/>
<path d="M90.486 115.585C91.0413 114.253 92.3255 113.572 93.2019 112.522C93.6271 112.01 94.1001 111.537 94.5513 111.047C95.0198 111.198 95.3062 111.58 95.6403 111.901C95.5882 113.012 94.3604 114.314 92.9416 114.76C92.126 115.038 91.306 115.311 90.486 115.585Z" fill="#F3A16A"/>
<path d="M98.1609 127.807C98.6598 128.093 99.1284 128.414 99.4625 128.9C99.4755 130.024 98.3648 131.269 97.0198 131.633C96.4862 131.178 95.9482 130.722 95.4146 130.267C96.0957 129.186 96.7725 128.097 98.1609 127.807Z" fill="#EA8D85"/>
<path d="M90.4859 139.781C90.0347 139.404 89.5835 139.022 89.1279 138.645C89.154 137.538 90.3427 136.258 91.627 135.955C92.1303 136.241 92.6075 136.562 92.9329 137.061C92.9503 138.172 91.8179 139.43 90.4859 139.781Z" fill="#E98B87"/>
<path d="M92.6118 127.863C92.1389 127.533 91.6312 127.247 91.3102 126.744C91.679 125.395 92.9241 124.288 94.0652 124.297C94.6769 124.483 94.8592 125.147 95.3625 125.455C94.9156 126.831 93.7398 127.859 92.6118 127.863Z" fill="#ED957A"/>
<path d="M55.0047 129.703C54.1413 129.772 53.7942 130.54 53.2215 131.004C52.818 131.33 52.5664 131.872 51.9546 131.907C51.5468 131.377 51.139 130.844 50.7355 130.315C52.024 129.889 52.6922 128.766 53.5382 127.841C54.3279 128.228 54.5578 129.052 55.0047 129.703Z" fill="#FAB84A"/>
<path d="M99.7229 120.249C100.955 119.811 101.597 118.713 102.435 117.832C103.033 117.997 103.445 118.409 103.806 118.887C103.819 120.01 102.669 121.281 101.333 121.62C100.795 121.16 100.261 120.704 99.7229 120.249Z" fill="#EB927D"/>
<path d="M101.333 121.616C102.252 120.791 103.354 120.132 103.806 118.882C104.383 119.294 104.986 119.685 105.424 120.262C105.046 121.629 103.81 122.722 102.643 122.718C102.14 122.423 101.654 122.115 101.333 121.616Z" fill="#EA9082"/>
<path d="M83.9606 143.105C83.4312 144.281 82.4073 144.996 81.4572 145.782C80.8411 145.417 80.2814 144.992 79.8475 144.415C80.6762 143.513 81.4702 142.575 82.5939 142.011C83.1839 142.211 83.518 142.723 83.9606 143.105Z" fill="#EA8E83"/>
<path d="M105.129 124.87C106.387 124.414 107.072 123.321 107.892 122.379C108.374 122.718 108.89 123.004 109.229 123.512C109.237 124.631 108.062 125.919 106.738 126.241C106.166 125.828 105.541 125.473 105.129 124.87Z" fill="#E8898B"/>
<path d="M92.9459 114.765C93.9438 113.901 95.0762 113.168 95.6446 111.906C96.252 112.179 96.6034 112.717 97.0069 113.207C97.3843 114.118 96.547 114.435 96.1261 114.925C95.7573 115.355 95.3842 115.823 94.7942 115.997C94.0002 115.85 93.7746 114.856 92.9459 114.765Z" fill="#F29F6D"/>
<path d="M98.161 127.807C97.2456 128.627 96.3301 129.447 95.4147 130.267C94.8246 129.946 94.369 129.473 93.9352 128.974C94.5513 127.872 95.4494 127.052 96.508 126.388C97.1761 126.731 97.6794 127.26 98.161 127.807Z" fill="#EA9082"/>
<path d="M90.486 139.781C91.3884 138.953 92.4904 138.302 92.933 137.061C93.5143 137.473 94.1087 137.868 94.5513 138.441C94.1825 139.79 92.9373 140.896 91.7962 140.888C91.3277 140.554 90.8157 140.276 90.486 139.781Z" fill="#E8898B"/>
<path d="M83.0669 147.153C84.0691 146.437 84.9325 145.578 85.644 144.576C86.1907 144.836 86.6159 145.231 86.9717 145.708C86.9847 146.836 85.8913 148.073 84.5464 148.446C83.9563 148.125 83.5051 147.647 83.0669 147.153Z" fill="#E8898C"/>
<path d="M65.7644 120.787C66.4759 120.028 67.1788 119.264 67.9033 118.518C68.1506 118.266 68.0248 118.045 67.9337 117.802C68.7494 117.975 69.5694 118.145 70.385 118.318C69.3611 119.451 68.5151 120.774 67.0096 121.381C66.528 121.334 66.1158 121.13 65.7644 120.787Z" fill="#F9B351"/>
<path d="M89.1323 133.807C89.5792 134.185 90.026 134.562 90.4729 134.944C90.4816 136.041 89.2928 137.326 87.9912 137.638C87.4142 137.226 86.7981 136.861 86.3816 136.267C87.271 135.417 87.9869 134.375 89.1323 133.807Z" fill="#EA9082"/>
<path d="M94.7942 115.993C95.3105 114.886 96.6771 114.452 97.0069 113.203C97.7358 113.242 97.918 113.936 98.3649 114.318C97.8746 115.511 96.8247 116.188 95.9092 116.995C95.5361 116.661 95.1673 116.327 94.7942 115.993Z" fill="#F19D71"/>
<path d="M104.04 137.621C103.571 137.291 103.059 137.018 102.734 136.519C103.597 135.642 104.33 134.627 105.454 134.033C106.027 134.28 106.396 134.753 106.773 135.217C106.196 136.397 105.667 137.634 104.04 137.621Z" fill="#E58198"/>
<path d="M96.9635 145.296C96.2866 144.97 95.7877 144.432 95.3018 143.877C96.2129 143.053 96.9114 141.985 98.0785 141.447C98.547 141.669 98.8942 142.033 99.2022 142.437C99.4538 142.875 99.289 143.265 98.9462 143.504C98.213 144.02 97.7444 144.832 96.9635 145.296Z" fill="#E58198"/>
<path d="M113.029 126.761C113.411 127.091 113.789 127.421 114.171 127.75C113.897 128.839 112.357 130.254 111.402 130.288C111.016 129.941 110.635 129.59 110.248 129.243C110.969 128.193 111.658 127.091 113.029 126.761Z" fill="#E58197"/>
<path d="M111.398 130.288C112.448 129.581 113.307 128.666 114.166 127.75C114.6 127.941 114.96 128.228 115.216 128.635C115.225 129.777 114.071 131.052 112.73 131.39C112.287 131.022 111.841 130.653 111.398 130.288Z" fill="#E47F9B"/>
<path d="M96.9635 145.296C97.2846 144.537 97.7401 143.903 98.495 143.5C98.9029 143.283 99.1805 142.931 99.2066 142.432C99.7749 142.688 100.148 143.157 100.53 143.621C100.1 144.979 98.9159 146.029 97.8095 146.025C97.5275 145.782 97.2455 145.539 96.9635 145.296Z" fill="#E47F9B"/>
<path d="M94.061 124.301C92.7941 124.722 92.152 125.846 91.3059 126.748C90.3124 125.911 90.3297 124.982 91.1324 124.063C91.9047 123.177 92.9373 123.29 94.061 124.301Z" fill="#EF9879"/>
<path d="M113.029 126.761C112.101 127.59 111.173 128.414 110.244 129.243C109.689 129.004 109.281 128.596 108.929 128.123C109.823 127.264 110.556 126.223 111.693 125.633C112.17 125.972 112.691 126.258 113.029 126.761Z" fill="#E58395"/>
<path d="M106.738 126.241C107.676 125.429 108.76 124.752 109.229 123.512C109.676 123.889 110.127 124.262 110.574 124.64C110.114 125.946 109.25 126.848 107.919 127.277C107.428 127.039 107.059 126.666 106.738 126.241Z" fill="#E7878F"/>
<path d="M79.3053 143.942C78.3682 142.927 78.2857 142.05 79.0537 141.248C79.8823 140.384 80.7284 140.415 81.8781 141.356C81.2577 142.458 80.3639 143.283 79.3053 143.942Z" fill="#EB937F"/>
<path d="M84.5464 148.446C85.4315 147.6 86.5595 146.971 86.9717 145.708C87.4836 146.007 87.9869 146.32 88.3123 146.84C87.9913 148.19 86.9153 148.871 85.861 149.565C85.4228 149.188 84.9846 148.814 84.5464 148.446Z" fill="#E7888F"/>
<path d="M94.0175 151.717C94.3776 152.016 94.7377 152.311 95.0978 152.611C95.0371 153.687 93.7442 155.088 92.4253 155.505C92.0391 155.058 91.653 154.615 91.2668 154.168C92.1606 153.322 92.8765 152.281 94.0175 151.717Z" fill="#E37BA1"/>
<path d="M104.04 137.621C105.346 137.269 105.832 135.985 106.769 135.217C107.263 135.33 107.511 135.764 107.871 136.05C107.827 137.165 106.63 138.445 105.354 138.736C104.795 138.506 104.396 138.089 104.04 137.621Z" fill="#E47F9B"/>
<path d="M100.795 130.08C101.302 130.245 101.61 130.649 101.931 131.035C101.628 132.336 100.356 133.508 99.224 133.529C98.7337 133.286 98.3606 132.909 98.0265 132.484C98.9333 131.659 99.6231 130.592 100.795 130.08Z" fill="#E8898C"/>
<path d="M89.4447 147.825C90.0087 148.081 90.4339 148.502 90.8027 148.979C90.0911 150.025 89.41 151.105 88.0563 151.435C87.5747 151.192 87.2103 150.815 86.8762 150.402C87.4923 149.309 88.3904 148.489 89.4447 147.825Z" fill="#E58395"/>
<path d="M105.45 134.033C104.643 134.97 103.962 136.046 102.73 136.519C102.248 136.267 101.879 135.89 101.541 135.473C102.448 134.64 103.163 133.586 104.326 133.043C104.795 133.269 105.146 133.625 105.45 134.033Z" fill="#E58395"/>
<path d="M107.914 127.277C108.895 126.492 109.762 125.598 110.569 124.64C111.034 124.865 111.385 125.221 111.689 125.633C110.873 126.579 110.188 127.672 108.925 128.123C108.591 127.841 108.253 127.559 107.914 127.277Z" fill="#E78591"/>
<path d="M79.0753 146.571C78.2336 147.474 77.5872 148.598 76.3159 149.023C76.06 148.914 75.7996 148.806 75.5436 148.697C75.2269 148.22 75.6261 147.99 75.8864 147.712C76.5198 147.044 77.149 146.376 77.7781 145.708C78.3074 145.851 78.7239 146.164 79.0753 146.571Z" fill="#EA9082"/>
<path d="M96.508 126.392C95.8008 127.403 94.9287 128.249 93.9352 128.974C93.3842 128.735 92.9763 128.319 92.6075 127.859C93.8744 127.455 94.4905 126.31 95.3582 125.451C95.8745 125.607 96.1696 126.028 96.508 126.392Z" fill="#EB927E"/>
<path d="M100.795 130.08C99.9138 130.931 99.3064 132.089 98.0265 132.479C97.6403 132.258 97.2498 132.041 97.0199 131.633C97.918 130.796 99.033 130.154 99.4625 128.9C100.005 129.182 100.391 129.638 100.795 130.08Z" fill="#E98B89"/>
<path d="M88.0563 151.439C88.9717 150.619 89.8872 149.804 90.8026 148.984C91.1454 149.283 91.4838 149.582 91.8265 149.882C91.5055 151.274 90.3341 152.294 89.0715 152.285C88.6854 152.06 88.2819 151.856 88.0563 151.439Z" fill="#E58198"/>
<path d="M107.259 140.35C106.869 140.128 106.469 139.92 106.24 139.508C106.804 138.376 107.84 137.66 108.691 136.783C109.138 137.161 109.58 137.538 110.027 137.916C109.637 139.282 108.413 140.358 107.259 140.35Z" fill="#E37CA1"/>
<path d="M89.4447 147.825C88.7418 148.836 87.8697 149.678 86.8762 150.407C86.438 150.246 86.1126 149.947 85.861 149.561C86.6766 148.654 87.4923 147.747 88.3123 146.836C88.6897 147.166 89.0672 147.495 89.4447 147.825Z" fill="#E78591"/>
<path d="M91.7961 140.883C93.0674 140.463 93.7095 139.335 94.5512 138.436C95.0892 138.619 95.2974 139.135 95.6445 139.508C95.2714 140.818 94.4601 141.682 93.1064 141.998C92.5511 141.769 92.1606 141.343 91.7961 140.883Z" fill="#E7878F"/>
<path d="M89.1323 133.807C88.295 134.718 87.6485 135.833 86.3817 136.263C86.104 136.02 85.8307 135.773 85.553 135.53C85.7048 134.124 87.0108 133.625 87.7787 132.701C88.321 132.957 88.7896 133.304 89.1323 133.807Z" fill="#EB927D"/>
<path d="M93.1108 141.998C94.1 141.317 94.9114 140.45 95.6489 139.508C96.1826 139.547 96.4559 139.933 96.7423 140.311C96.7596 141.421 95.6316 142.68 94.2953 143.035C93.9005 142.688 93.5057 142.341 93.1108 141.998Z" fill="#E68591"/>
<path d="M94.2952 143.035C95.1976 142.207 96.304 141.556 96.7422 140.311C97.189 140.688 97.6359 141.066 98.0828 141.443C97.2194 142.324 96.5946 143.474 95.3061 143.873C94.9199 143.651 94.5208 143.448 94.2952 143.035Z" fill="#E58395"/>
<path d="M104.331 133.048C103.458 133.92 102.829 135.074 101.545 135.477C101.098 135.321 100.777 135.022 100.53 134.631C101.098 133.499 102.131 132.783 102.986 131.907C103.432 132.284 103.879 132.666 104.331 133.048Z" fill="#E78591"/>
<path d="M101.393 144.307C101.84 144.489 102.187 144.788 102.443 145.192C102.46 146.302 101.337 147.556 100 147.916C99.6056 147.574 99.2151 147.226 98.8203 146.884C99.4407 145.786 100.334 144.962 101.393 144.307Z" fill="#E37CA1"/>
<path d="M102.986 131.907C102.539 133.152 101.441 133.807 100.53 134.631C100.096 134.263 99.6621 133.894 99.2283 133.525C100.443 133.035 101.137 131.976 101.936 131.03C102.322 131.278 102.743 131.482 102.986 131.907Z" fill="#E7878F"/>
<path d="M116.539 129.751C116.834 129.985 117.129 130.223 117.424 130.458C117.164 131.785 115.806 133.026 114.63 133.013C114.37 132.805 114.114 132.597 113.854 132.388C113.91 131.148 115.299 129.781 116.539 129.751Z" fill="#E37BA1"/>
<path d="M94.0176 151.717C93.1803 152.624 92.5338 153.743 91.2669 154.173C91.0066 153.964 90.7463 153.756 90.486 153.548C90.5337 152.437 91.7312 151.162 92.998 150.871C93.3885 151.097 93.7877 151.3 94.0176 151.717Z" fill="#E47C9E"/>
<path d="M72.281 140.419C71.6909 141.647 70.5629 142.376 69.6344 143.291C69.3394 142.936 69.04 142.58 68.745 142.228C69.7689 141.465 70.6193 140.528 71.4523 139.569C71.9729 139.617 71.9469 140.194 72.281 140.419Z" fill="#F09D71"/>
<path d="M101.619 149.556C101.333 149.222 101.051 148.884 100.764 148.55C101.103 147.17 101.962 146.315 103.341 145.977C103.788 146.129 104.101 146.446 104.357 146.827C103.68 147.968 102.769 148.884 101.619 149.556Z" fill="#E279A5"/>
<path d="M93.0023 150.867C92.0478 151.648 91.0282 152.372 90.4903 153.544C89.9219 153.231 89.4794 152.78 89.0715 152.285C90.2777 151.812 91.128 150.932 91.8266 149.882C92.3472 150.055 92.6639 150.476 93.0023 150.867Z" fill="#E47F9B"/>
<path d="M87.7786 132.701C87.4793 133.989 86.0692 134.41 85.5529 135.53C84.7459 134.814 84.6722 133.976 85.2926 133.143C85.9521 132.254 86.8198 132.137 87.7786 132.701Z" fill="#EC947A"/>
<path d="M109.198 142.02C108.804 141.777 108.387 141.565 108.144 141.139C108.5 139.794 109.758 138.671 110.899 138.684C111.164 138.862 111.428 139.04 111.689 139.217C111.394 140.623 110.244 141.274 109.198 142.02Z" fill="#E279A5"/>
<path d="M109.198 142.02C110.027 141.083 110.86 140.15 111.689 139.213C112.136 139.321 112.583 139.434 113.03 139.543C112.188 140.827 110.656 141.521 110.058 143.009C109.771 142.68 109.485 142.35 109.198 142.02Z" fill="#E278A7"/>
<path d="M101.619 149.556C102.417 148.532 103.324 147.617 104.357 146.827C104.617 147.031 104.877 147.235 105.138 147.439C104.083 148.498 103.029 149.556 101.975 150.615C101.858 150.259 101.74 149.908 101.619 149.556Z" fill="#E278A7"/>
<path d="M116.539 129.75C115.337 130.319 114.483 131.239 113.854 132.388C113.389 132.154 113.034 131.798 112.73 131.386C113.658 130.557 114.769 129.894 115.216 128.631C115.659 129.009 116.097 129.377 116.539 129.75Z" fill="#E47D9F"/>
<path d="M87.9912 137.638C88.924 136.835 89.987 136.154 90.4729 134.944C90.9545 135.174 91.3059 135.547 91.627 135.955C90.6855 136.749 89.6442 137.452 89.1279 138.645C88.6594 138.406 88.3036 138.05 87.9912 137.638Z" fill="#EB8F85"/>
<path d="M108.691 136.788C108.248 138.033 107.146 138.684 106.239 139.512C105.944 139.252 105.649 138.996 105.354 138.736C106.309 137.95 107.337 137.23 107.871 136.05C108.231 136.202 108.491 136.458 108.691 136.788Z" fill="#E47D9E"/>
<path d="M102.638 122.718C103.927 122.305 104.569 121.164 105.419 120.262C105.784 120.414 106.049 120.683 106.266 121.004C105.454 121.95 104.773 123.039 103.524 123.503C103.228 123.243 102.933 122.978 102.638 122.718Z" fill="#EB8E84"/>
<path d="M101.393 144.307C100.686 145.313 99.8183 146.159 98.8247 146.884C98.3822 146.723 98.0568 146.415 97.8052 146.029C99.046 145.604 99.6751 144.489 100.525 143.625C100.938 143.695 101.155 144.016 101.393 144.307Z" fill="#E47D9E"/>
<path d="M79.3052 143.942C80.0124 142.931 80.8801 142.081 81.878 141.361C82.2685 141.413 82.2988 141.855 82.5939 142.011C81.7782 142.923 81.0276 143.916 79.8475 144.415C79.6696 144.255 79.4874 144.098 79.3052 143.942Z" fill="#EB9181"/>
<path d="M114.626 133.013C115.897 132.532 116.622 131.456 117.42 130.458C118.032 130.193 118.648 129.928 119.26 129.664C118.262 131.269 116.591 132.263 115.494 133.781C115.116 133.625 114.847 133.347 114.626 133.013Z" fill="#E27BA4"/>
<path d="M92.4296 155.505C93.3841 154.598 94.5208 153.86 95.1022 152.611C95.4623 152.758 95.7313 153.01 95.9308 153.344C94.6857 154.06 94.1043 155.561 92.6812 156.06C92.5988 155.873 92.512 155.691 92.4296 155.505Z" fill="#E37CA4"/>
<path d="M110.899 138.679C109.632 139.109 108.986 140.228 108.144 141.135C107.849 140.875 107.554 140.61 107.259 140.35C108.539 139.946 109.172 138.805 110.027 137.916C110.405 138.072 110.678 138.35 110.899 138.679Z" fill="#E27BA4"/>
<path d="M103.341 145.977C102.339 146.693 101.48 147.548 100.764 148.55C100.443 148.42 100.161 148.242 100.001 147.916C100.899 147.083 102.005 146.437 102.443 145.192C102.743 145.452 103.042 145.712 103.341 145.977Z" fill="#E27BA4"/>
<path d="M61.9333 112.83C61.9377 113.515 61.9377 114.197 61.942 114.882C61.634 114.201 61.6296 113.515 61.9333 112.83Z" fill="#FBBA45"/>
<path d="M80.0341 188.01C118.713 188.01 150.068 157.695 150.068 120.301C150.068 82.9065 118.713 52.5923 80.0341 52.5923C41.3554 52.5923 10 82.9065 10 120.301C10 157.695 41.3554 188.01 80.0341 188.01Z" stroke="url(#paint0_linear_2_239)" stroke-width="19" stroke-miterlimit="10"/>
<path d="M150.068 49.8633C161.076 49.8633 170 40.9396 170 29.9317C170 18.9237 161.076 10 150.068 10C139.06 10 130.137 18.9237 130.137 29.9317C130.137 40.9396 139.06 49.8633 150.068 49.8633Z" stroke="url(#paint1_linear_2_239)" stroke-width="19" stroke-miterlimit="10"/>
<defs>
<linearGradient id="paint0_linear_2_239" x1="5.87813" y1="120.303" x2="154.19" y2="120.303" gradientUnits="userSpaceOnUse">
<stop offset="0.034" stop-color="#FBEC53"/>
<stop offset="0.1503" stop-color="#FCD242"/>
<stop offset="0.2273" stop-color="#FCC239"/>
<stop offset="0.3812" stop-color="#FCC139"/>
<stop offset="0.85" stop-color="#E278A4"/>
<stop offset="0.8824" stop-color="#DE73AA"/>
<stop offset="1" stop-color="#BA6BA9"/>
</linearGradient>
<linearGradient id="paint1_linear_2_239" x1="126.016" y1="29.9336" x2="174.12" y2="29.9336" gradientUnits="userSpaceOnUse">
<stop offset="0.034" stop-color="#FBEC53"/>
<stop offset="0.1503" stop-color="#FCD242"/>
<stop offset="0.2273" stop-color="#FCC239"/>
<stop offset="0.3812" stop-color="#FCC139"/>
<stop offset="0.85" stop-color="#E278A4"/>
<stop offset="0.8824" stop-color="#DE73AA"/>
<stop offset="1" stop-color="#BA6BA9"/>
</linearGradient>
</defs>
</svg>
