<svg width="448" height="271" viewBox="0 0 448 271" fill="none" xmlns="http://www.w3.org/2000/svg">
<path d="M0 107.11C0.808394 104.764 1.74495 102.467 3.43075 100.584C6.99951 96.5911 11.426 94.7968 16.7988 95.4573C18.524 95.6644 20.1901 96.0784 21.8661 96.9361C22.2505 94.4518 22.6646 92.0858 23.68 89.8676C27.2192 82.0992 33.154 77.3671 41.6421 76.0263C49.4599 74.794 56.1242 77.2586 61.783 82.6512C61.9506 82.8188 62.0787 83.0258 62.2266 83.2132C63.1533 83.5878 63.8138 84.2779 64.3659 85.0863C68.8022 91.6126 69.9162 98.6515 67.6586 106.203C67.1558 107.889 67.1164 107.958 68.8909 108.549C77.4481 111.359 85.9066 114.435 94.6412 116.692C95.3411 116.87 96.5735 116.9 96.4847 117.649C96.396 118.457 95.213 118.201 94.4835 118.201C76.2157 118.221 57.9579 118.457 39.7 118.132C27.5643 117.915 15.4384 118.102 3.30259 117.915C2.87868 117.905 2.43504 118.023 2.03085 117.787C1.15344 117.008 0.828115 115.963 0.512644 114.879C0.374626 114.405 0.453491 113.834 0.00986056 113.459C2.10621e-06 111.329 0 109.22 0 107.11Z" fill="#D7DEF1"/>
<path d="M2.02127 117.767C33.45 117.767 64.8788 117.767 96.3076 117.767C96.3174 117.718 96.3273 117.659 96.3371 117.609C93.7049 116.87 91.053 116.19 88.4504 115.381C84.2408 114.07 80.0608 112.68 75.871 111.31C73.1402 110.413 70.4193 109.466 67.6786 108.599C66.7519 108.303 66.5054 108.017 66.8702 106.982C69.3545 100.061 68.7532 93.3969 65.0464 86.9988C64.2479 85.6087 63.2226 84.4356 62.217 83.223C63.9817 82.5625 65.3914 81.3006 66.9984 80.364C75.3583 75.5235 84.4281 72.7336 93.8429 70.9097C97.3526 70.2295 100.931 69.9042 104.47 69.4211C104.963 69.9929 104.855 70.683 104.855 71.3534C104.865 74.3306 104.845 77.298 104.865 80.2753C104.904 87.3142 109.971 94.5602 116.488 97.3403C120.895 99.2232 125.42 99.0557 130.004 98.7993C134.509 98.5529 138.837 97.36 143.175 96.246C144.92 97.0347 146.073 98.543 147.443 99.7753C150.361 102.398 153.309 104.99 156.316 107.504C159.066 109.801 161.166 112.65 163.138 115.598C163.414 116.012 163.651 116.446 163.848 116.899C166.529 121.602 167.998 126.748 169.457 131.894C169.507 132.032 169.546 132.17 169.566 132.318C170.699 137.652 168.609 141.624 164.282 144.641C162.941 145.568 161.669 146.593 160.338 147.54C160.171 147.668 160.013 147.796 159.845 147.934C153.082 153.257 146.487 158.758 140.138 164.585C135.525 168.814 131.078 173.201 126.78 177.726C121.723 183.04 116.813 188.521 112.416 194.417C110.425 196.171 108.483 197.966 107.438 200.489C107.31 200.795 107.103 201.14 106.698 201.051C106.166 200.923 106.136 200.43 106.127 200.006C106.018 197.394 105.318 194.9 104.648 192.396C104.411 191.518 104.165 190.631 103.751 189.813C102.804 187.979 100.842 187.614 99.2848 188.965C99.1074 189.123 98.9496 189.3 98.782 189.477C97.6582 190.651 97.4511 190.651 96.5737 189.241C92.936 183.365 85.2464 183.592 81.2931 187.013C81.2241 187.072 81.1551 187.141 81.0762 187.2C80.6326 187.535 80.2383 188.225 79.6369 187.94C79.0947 187.673 79.4397 186.973 79.4595 186.471C79.6665 182.093 77.5863 178.446 73.9091 176.681C72.4501 175.981 70.9713 175.843 69.4137 176.228C68.9602 176.336 68.4081 176.592 68.0532 176.149C67.718 175.715 68.0729 175.232 68.28 174.808C69.877 171.555 70.6953 168.144 70.4981 164.516C70.3601 161.923 69.6404 159.518 67.9546 157.477C65.3422 154.302 61.1425 153.514 57.5441 155.515C57.3371 155.633 57.1399 155.781 56.923 155.88C56.6667 155.998 56.3907 156.195 56.1343 155.949C55.8977 155.722 55.9865 155.407 56.0752 155.14C56.3315 154.362 56.5385 153.583 56.6864 152.774C57.2779 149.531 56.2921 146.692 54.3795 144.138C52.6937 141.881 50.308 141.417 47.6462 141.861C45.8914 142.157 44.2056 142.758 42.4311 143.034C40.7256 143.3 39.0989 143.143 37.7089 142.186C36.4174 141.289 34.8499 141.072 33.5683 140.215C33.8148 135.64 34.6133 131.155 35.6485 126.699C36.2104 124.293 36.8315 121.888 37.6004 119.532C38.0244 118.23 37.6793 118.004 36.4372 118.013C25.5633 118.053 14.6894 118.043 3.81551 118.023C3.21414 118.033 2.55363 118.27 2.02127 117.767Z" fill="#E5EBF9"/>
<path d="M33.5783 140.225C34.6233 140.363 35.757 140.442 36.5851 141.102C39.3258 143.32 42.2735 142.956 45.3197 142.019C46.6506 141.615 48.0111 141.378 49.4208 141.349C51.8855 141.289 53.6698 142.403 55.0106 144.316C57.5048 147.875 57.8893 151.69 56.1345 155.969C57.7019 154.884 59.1807 154.096 60.9257 154.036C66.1506 153.849 69.5025 157.162 70.5771 162.111C71.5235 166.468 70.6855 170.658 68.7829 174.66C68.5758 175.094 68.3688 175.518 68.0336 176.218C71.77 174.858 74.7472 175.952 77.133 178.574C79.4891 181.157 80.3468 184.272 79.6173 188.078C82.3875 185.11 85.6014 183.917 89.3574 184.282C93.2318 184.657 95.8246 186.905 97.678 190.276C98.0329 189.813 98.2695 189.458 98.5455 189.142C100.586 186.855 103.416 187.338 104.382 190.247C105.446 193.46 106.462 196.704 106.501 200.154C106.501 200.381 106.452 200.637 106.906 200.874C107.911 197.995 110.021 195.964 112.278 194.052C115.512 191.37 119.81 191.814 122.906 194.338C123.478 194.801 123.921 195.304 124.651 194.387C128.289 189.754 133.021 186.343 137.812 183.04C143.352 179.215 148.912 175.419 154.384 171.496C157.322 169.396 159.993 166.971 161.443 163.501C163.483 158.64 162.31 154.115 160.121 149.669C159.816 149.048 159.205 148.486 159.727 147.697C159.826 147.599 159.924 147.51 160.023 147.412C160.733 147.057 160.999 147.648 161.245 148.052C164.873 153.958 165.632 161.943 161.038 167.641C158.662 170.589 155.636 172.827 152.55 174.976C146.26 179.333 139.892 183.572 133.74 188.127C130.901 190.227 128.348 192.613 126.1 195.343C125.4 196.191 125.232 196.95 125.755 197.956C126.465 199.326 126.918 200.805 127.076 202.343C127.155 203.102 127.441 203.339 128.2 203.171C131.246 202.481 134.154 202.964 136.865 204.462C137.792 204.975 138.453 204.827 139.153 204.088C140.138 203.043 141.045 201.919 142.051 200.874C145.225 197.581 148.765 194.673 151.919 191.361C155.498 187.605 159.067 183.848 162.093 179.599C164.706 175.932 166.677 171.959 168.472 167.858C170.7 162.761 172.78 157.595 176.22 153.11C179.296 149.097 183.318 146.554 188.1 145.095C192.26 143.823 196.578 143.31 200.837 142.472C206.752 141.299 212.568 139.752 218.306 137.898C222.21 136.636 226.035 135.187 229.85 133.718C231.201 133.196 231.743 132.476 231.753 130.968C231.773 127.468 232.68 124.136 234.395 121.06C235.637 118.832 237.017 116.693 238.496 114.622C238.772 114.228 238.95 113.479 239.758 113.863C240.143 115.036 239.867 116.131 239.324 117.186C239.176 117.343 238.979 116.969 238.782 117.274C236.416 120.804 234.257 124.422 233.695 128.75C233.606 129.42 233.616 130.09 233.606 130.761C233.587 131.648 233.833 132.062 234.789 131.579C235.233 131.352 235.706 130.978 236.258 131.372C236.554 131.954 236.574 132.515 236.13 133.048C235.834 133.215 235.499 133.275 235.174 133.353C234.001 133.649 233.646 134.359 233.951 135.493C234.287 136.735 234.454 138.016 234.918 139.229C234.819 140.185 235.046 141.211 234.267 142.009C234.099 142.009 233.981 141.94 233.902 141.792C233.291 139.781 232.473 137.819 232.187 135.71C232.029 134.546 231.319 134.98 230.698 135.236C226.38 137.031 221.993 138.618 217.527 140.008C209.877 142.394 202.089 144.158 194.192 145.499C189.362 146.317 184.699 147.619 180.805 150.842C177.965 153.198 175.954 156.176 174.318 159.39C172.168 163.629 170.374 168.035 168.393 172.344C165.701 178.19 161.876 183.286 157.499 188.009C154.857 190.868 152.166 193.687 149.336 196.359C146.359 199.159 143.382 201.939 140.651 204.995C139.882 205.862 139.774 206.385 140.631 207.243C144.22 210.861 146.063 215.238 145.886 220.344C145.827 221.912 146.349 222.691 147.838 223.351C155.251 226.654 161.65 231.337 166.805 237.616C168.363 239.519 169.319 241.688 169.556 244.153C169.655 245.138 169.438 246.095 168.955 246.923C168.373 247.909 168.718 248.52 169.517 249.102C171.311 250.413 173.164 251.606 175.136 252.631C178.793 254.553 182.579 256.259 186.01 258.605C189.372 260.902 191.728 263.988 193.512 267.557C193.759 268.059 194.044 268.611 193.571 269.173C189.933 268.917 186.325 268.523 182.707 268.079C178.044 267.507 173.411 266.817 168.777 266.058C162.054 264.954 155.399 263.534 148.774 261.967C136.126 258.96 123.783 255.007 111.785 250.038C101.828 245.917 92.2164 241.067 83.1466 235.211C76.3147 230.804 69.8673 225.944 63.9029 220.413C55.8486 212.951 49.0955 204.531 43.7917 194.919C38.7737 185.83 35.7767 176.1 34.2092 165.926C33.2234 159.547 32.7108 153.1 33.0558 146.643C33.1741 144.503 33.0361 142.325 33.5783 140.225Z" fill="#C9D3EE"/>
<path d="M193.581 269.173C193.157 266.945 191.836 265.191 190.544 263.416C188.04 259.975 184.491 257.866 180.824 255.943C177.048 253.962 173.154 252.197 169.674 249.693C168.481 248.835 167.88 248.224 168.698 246.558C170.068 243.768 168.787 241.116 167.2 238.79C164.804 235.28 161.62 232.48 158.258 229.917C154.699 227.206 150.884 224.889 146.694 223.263C145.777 222.908 145.471 222.356 145.55 221.399C145.895 216.766 144.574 212.625 141.755 208.938C141.321 208.366 140.838 207.805 140.276 207.371C139.192 206.533 139.271 205.971 140.207 204.906C144.594 199.928 149.78 195.748 154.334 190.937C159.648 185.317 164.725 179.521 167.998 172.423C170.068 167.947 171.902 163.363 174.1 158.956C177.689 151.779 183.348 147.126 191.432 145.677C200.679 144.03 209.877 142.157 218.818 139.259C222.92 137.928 227.001 136.479 230.934 134.694C232.039 134.191 232.541 134.418 232.591 135.552C232.679 137.681 233.882 139.535 234.089 141.635C234.089 142.719 233.32 143.064 232.463 143.32C228.588 144.494 224.694 145.598 220.78 146.623C212.292 148.831 203.784 151 195.888 154.943C188.849 158.463 182.697 163.077 178.34 169.741C175.303 174.394 173.696 179.619 172.415 184.962C171.123 190.335 170.039 195.748 169.299 201.209C168.668 205.902 168.097 210.614 167.909 215.366C167.83 217.328 167.643 219.28 167.653 221.242C167.407 221.981 166.943 222.602 166.559 223.263C165.898 224.416 166.017 224.603 167.387 224.653C167.673 224.662 167.968 224.653 168.254 224.653C196.262 224.653 224.26 224.653 252.268 224.662C253.333 224.662 254.378 224.554 255.433 224.455C256.044 224.939 255.797 225.589 255.738 226.191C255.157 232.145 254.476 238.09 253.895 244.044C253.116 251.951 252.12 259.837 251.489 267.764C249.458 268.03 247.438 268.345 245.407 268.552C241.365 268.976 237.323 269.459 233.261 269.686C229.19 269.913 225.098 269.952 221.017 270.09C216.117 270.258 211.237 269.992 206.347 269.962C202.079 269.962 197.82 269.706 193.581 269.173Z" fill="#D7DEF1"/>
<path d="M200.245 25.3541C202 26.3202 203.962 26.2512 205.835 26.1526C212.47 25.8273 218.75 23.8359 224.941 21.6079C229.15 20.0995 233.36 18.6208 237.757 17.7828C243.918 16.6096 250.07 16.304 256.025 18.7687C260.5 20.622 263.823 23.5204 264.158 28.7257C264.306 31.0622 263.586 33.2606 262.63 35.3703C261.417 38.0616 259.662 40.3882 257.562 42.4684C257.05 42.9711 256.587 43.5232 256.094 44.0457C255.295 44.6471 254.526 44.0753 253.757 43.957C253.235 43.8781 252.722 43.7401 252.199 43.6317C250.494 43.2768 248.798 43.2472 247.093 43.6021C243.169 44.0852 239.955 45.8991 237.284 48.7581C236.83 49.2411 236.456 49.8326 235.687 49.8524C234.435 49.7834 233.252 49.3693 232.049 49.0637C226.351 47.6046 220.633 46.2047 214.944 44.6964C213.525 44.1147 211.987 43.9866 210.508 43.6119C208.418 43.0402 206.368 43.3951 204.307 43.819C198.362 44.9231 192.792 50.4734 191.954 56.9209C191.826 57.6603 191.826 58.4391 191.255 59.0306C186.315 59.0109 181.426 58.4489 176.526 57.9166C169.191 57.1279 161.975 55.7576 154.857 53.8845C152.136 53.1648 149.455 52.2578 146.763 51.4199C146.073 51.203 145.413 50.9171 144.673 50.9664C144.723 50.2171 145.393 50.296 145.837 50.1481C148.617 49.2017 151.426 48.3341 154.167 47.2793C154.433 47.1709 154.719 47.1018 154.975 46.9737C155.389 46.7667 155.991 46.6287 155.695 45.978C155.458 45.4654 154.966 45.6132 154.551 45.7808C153.388 46.254 152.195 46.6188 151.022 47.0526C148.4 47.999 145.768 48.9454 143.047 49.596C142.544 49.7143 142.031 49.951 141.519 49.6059C140.986 48.9257 140.158 48.7285 139.429 48.3834C133.681 45.6724 128.407 42.2613 124.128 37.549C119.219 32.1367 115.709 25.985 115.758 18.4236C115.798 13.1 118.253 8.87075 122.511 5.7259C127.076 2.37402 132.281 0.83611 137.901 0.264319C147.927 -0.751102 157.312 1.16142 166.096 5.96249C170.611 8.42711 174.702 11.5424 178.793 14.6182C183.713 18.3151 188.711 21.8642 194.449 24.2204C194.251 25.0091 193.571 24.7921 193.049 24.8809C188.8 25.6005 184.669 26.6061 181.041 29.1003C177.492 31.5452 175.363 34.8774 174.337 38.9785C174.16 39.6686 174.13 40.408 173.657 40.9995C171.754 41.9853 169.674 42.3698 167.614 42.8529C167.328 42.9219 167.042 42.9416 166.766 43.0303C166.263 43.188 165.406 43.0895 165.603 43.9373C165.761 44.657 166.47 44.3711 166.953 44.2626C168.738 43.8683 170.542 43.5627 172.287 42.9909C172.878 42.7937 173.46 42.5374 174.111 42.7148C176.161 44.0556 178.192 45.4062 180.657 45.9583C184.531 46.8258 187.853 45.8794 190.811 43.2768C193.847 40.5953 195.78 37.204 197.377 33.5859C198.481 31.0917 199.536 28.5679 199.94 25.8371C199.989 25.64 200.098 25.4823 200.245 25.3541Z" fill="#E5EBF9"/>
<path d="M388.335 47.8117C393.944 48.0976 399.071 49.9312 403.714 52.9677C409.382 56.6646 413.415 61.7614 415.84 68.0609C416.678 70.2397 417.358 72.4874 417.575 74.8337C417.733 76.5688 417.831 76.6279 419.389 76.0266C425.057 73.838 430.726 73.8676 436.188 76.4406C440.999 78.7081 444.518 82.3853 446.49 87.3835C448.885 93.4662 448.383 99.3615 445.326 105.089C444.824 105.365 444.291 105.227 443.769 105.227C437.745 105.237 431.692 104.774 425.718 105.336C414.962 106.341 404.217 105.641 393.471 105.819C382.735 105.996 371.999 105.858 361.253 105.858C360.672 105.858 360.1 105.927 359.528 105.977C359.292 106.065 359.045 106.115 358.809 105.996C357.468 104.508 356.452 102.753 354.993 101.343C352.982 99.3911 350.764 97.7448 348.319 96.3744C347.856 96.1083 346.988 96.0787 347.304 95.1323C349.246 93.8901 351.523 93.545 353.633 92.7564C353.86 92.6775 354.096 92.6282 354.333 92.5691C356.541 91.9578 356.521 91.9578 355.772 89.7693C349.66 71.7776 360.189 52.8986 378.2 48.3145C381.591 47.4371 384.943 47.6244 388.335 47.8117Z" fill="#D7DEF1"/>
<path d="M251.479 267.783C250.73 266.768 251.174 265.624 251.272 264.579C251.657 260.35 252.16 256.131 252.623 251.911C253.175 246.834 253.747 241.757 254.279 236.68C254.614 233.496 254.9 230.311 255.216 227.127C255.295 226.269 255.393 225.421 255.472 224.564C254.881 222.572 255.383 220.68 255.975 218.797C256.241 218.55 256.576 218.521 256.921 218.521C259.583 218.53 261.22 217.052 262.235 214.784C263.369 212.26 263.832 209.559 264.029 206.828C264.217 204.275 264.187 204.384 266.731 204.512C270.812 204.719 274.883 205.113 278.955 205.419C281.932 205.636 284.9 205.912 287.877 206.04C289.602 206.119 290.006 206.592 290.065 208.386C290.105 209.697 290.282 210.959 291.071 212.073C291.958 213.335 293.171 213.976 294.729 214.065C296.888 214.183 296.996 214.321 297.016 216.431C297.016 217.15 297.065 217.87 296.927 218.58C296.73 219.359 296.03 219.506 295.399 219.743C290.213 221.675 284.88 223.193 279.724 225.214C277.93 225.914 276.155 226.664 274.381 227.393C274.075 227.521 273.76 227.669 273.493 227.866C273.267 228.044 272.991 228.241 273.217 228.566C273.375 228.793 273.651 228.734 273.878 228.645C274.686 228.34 275.495 228.014 276.293 227.679C281.834 225.323 287.581 223.529 293.269 221.577C300.88 218.964 308.402 216.164 315.057 211.491C316.161 210.713 317.206 209.865 318.271 209.056C319.286 208.287 320.193 208.169 321.267 208.978C324.156 211.156 327.508 211.846 331.067 211.787C333.364 211.846 333.354 211.846 334.014 214.055C334.695 216.322 335.838 218.284 337.978 219.487C339.377 220.275 340.866 220.275 342.355 219.694C342.749 220.118 342.739 220.66 342.759 221.182C342.897 225.964 343.488 230.706 343.853 235.457C343.932 236.463 344.248 237.587 343.203 238.366C329.302 245.769 314.8 251.753 299.825 256.643C299.047 256.9 298.278 257.146 297.499 257.392C296.907 256.811 297.065 256.052 297.065 255.352C297.045 249.506 297.065 243.66 297.045 237.814C297.045 237.222 297.213 236.581 296.74 235.99C296.355 236.424 296.434 236.916 296.464 237.36C296.602 239.312 296.178 241.156 295.557 242.989C293.861 247.987 292.205 252.996 290.529 257.994C290.332 258.585 290.134 259.177 289.681 259.64C284.21 261.326 278.64 262.627 273.06 263.879C265.912 265.496 258.706 266.728 251.479 267.783Z" fill="#78BACB"/>
<path d="M143.52 96.463C136.707 98.7108 129.698 99.7459 122.531 99.3023C118.4 99.0459 114.703 97.3996 111.559 94.7181C108.305 91.9478 106.018 88.5072 104.993 84.3174C104.746 83.302 104.5 82.257 104.48 81.2219C104.421 77.2883 104.47 73.3548 104.47 69.4213C110.09 69.1157 115.709 68.6227 121.328 68.8593C128.081 69.1452 134.815 69.5987 141.548 70.4367C151.732 71.6986 161.561 74.4589 171.537 76.6278C177.443 77.9094 183.368 78.984 189.401 79.5558C194.784 80.0586 200.166 80.2261 205.539 79.9994C211.671 79.7431 217.754 78.9544 223.777 77.7024C228.992 76.6179 234.139 75.2476 239.304 73.9463C239.709 73.8477 240.172 73.8083 240.468 73.4336C240.921 73.2562 241.325 73.4534 241.7 73.6505C245.2 75.4546 248.867 76.0757 252.751 75.2969C253.077 75.2279 253.422 75.2082 253.737 75.3856C253.964 77.1602 253.323 78.7671 252.732 80.3839C251.844 80.9557 250.868 80.7388 249.932 80.6402C247.733 80.3937 246.984 80.8571 246.294 82.9471C246.156 83.3809 246.038 83.8146 246.038 84.278C245.288 87.9256 244.598 91.5831 243.859 95.2307C243.77 95.6941 243.711 96.187 243.317 96.5222C242.814 96.7193 242.272 96.6405 241.759 96.7785C240.064 97.232 238.723 97.9418 237.638 99.5487C235.657 102.506 232.857 104.793 230.264 107.219C227.78 109.545 225.286 111.872 222.663 114.051C219.154 116.978 215.102 118.398 210.626 118.704C207.836 118.891 205.046 118.733 202.266 118.378C201.547 118.28 200.521 118.447 200.383 117.264C200.462 117.038 200.61 116.87 200.807 116.752C202.444 116.387 204.07 116.791 205.667 116.939C212.075 117.55 217.803 116.101 222.653 111.744C226.804 108.027 230.875 104.222 234.799 100.259C235.331 99.7262 235.854 99.1741 236.16 98.5234C235.953 98.2474 235.746 98.2967 235.568 98.3361C230.402 99.4501 225.158 99.5882 219.903 99.4206C218.345 99.3713 217.33 99.9628 216.334 101.116C213.534 104.34 210.518 107.376 207.629 110.521C207.136 111.063 206.564 111.507 205.776 111.517C203.153 111.349 200.669 110.551 198.195 109.782C192.309 107.958 186.808 105.375 182.362 100.958C181.258 99.8642 180.292 98.6614 179.631 97.2813C179.02 95.9997 178.143 95.5166 176.772 95.6842C176.299 95.7433 175.806 95.7039 175.353 95.5068C173.746 94.2054 173.253 92.2239 172.366 90.5085C171.074 87.9946 170.295 85.2539 169.388 82.5823C168.866 81.0444 168.826 81.1035 166.756 81.4091C165.465 81.5964 165.198 82.2865 165.336 83.3907C166.017 88.9114 167.515 94.1068 171.656 98.1389C174.396 100.811 177.807 102.349 181.366 103.62C181.997 103.847 182.668 103.975 183.239 104.34C183.624 104.626 183.92 104.971 183.959 105.474C183.86 106.252 183.308 106.233 182.776 106.065C178.32 104.577 174.012 102.782 170.512 99.529C166.805 96.0785 165.001 91.6225 164.035 86.782C163.759 85.4215 163.394 84.0709 163.384 82.671C163.375 81.8528 162.901 81.6063 162.162 81.6063C160.802 81.6063 159.5 81.2613 158.199 80.8965C155.931 80.2557 153.812 81.7936 153.743 84.1005C153.733 84.4357 153.733 84.7709 153.674 85.1061C153.487 86.1412 153.122 87.0778 152.047 87.4721C150.933 87.8862 149.947 87.4228 149.385 86.5454C148.094 84.5244 146.428 84.5343 144.397 85.1948C141.775 86.0426 139.024 86.2398 136.284 86.506C135.929 86.5454 135.416 86.3384 135.258 86.7919C135.12 87.1862 135.574 87.4524 135.781 87.758C135.83 87.8369 135.909 87.896 135.968 87.9749C137.526 90.3902 139.665 91.6718 142.613 91.8887C145.748 92.1253 148.735 93.121 151.653 94.2941C152.52 94.6491 153.437 94.6589 154.354 94.6589C155.557 94.649 156.76 94.6786 157.972 94.6491C160.94 94.5801 163.355 95.6152 164.962 98.1784C169.842 105.957 173.716 114.179 175.56 123.209C176.437 127.478 174.84 130.396 171.015 132.338C170.394 132.653 169.773 132.998 169.27 132.18C168.964 131.431 169.536 131.165 170.029 130.879C170.867 130.396 171.715 129.952 172.395 129.242C174.406 127.143 174.061 124.589 173.549 122.174C172.632 117.846 170.847 113.784 169.132 109.713C167.712 106.341 165.819 103.216 164.035 100.042C162.675 97.6165 160.802 96.2954 157.943 96.5715C157.42 96.6207 156.888 96.5222 156.178 96.6503C157.164 97.5376 158.14 98.277 159.017 99.1051C162.29 102.171 163.789 106.026 164.104 110.373C164.242 112.276 164.646 114.189 164.4 116.101C164.351 116.495 164.686 117.659 163.483 116.919C163.286 116.535 163.099 116.15 162.901 115.766C162.221 113.981 162.418 112.089 162.261 110.255C161.718 103.965 158.317 99.7163 152.875 96.9362C151.357 96.1574 149.573 96.5813 147.897 96.7391C146.438 96.8475 144.949 97.1433 143.52 96.463Z" fill="#C9D3EE"/>
<path d="M359.114 105.937C359.371 105 360.14 105.404 360.682 105.404C375.854 105.385 391.026 105.385 406.208 105.385C410.733 105.385 415.268 105.533 419.793 105.355C428.311 105.02 436.819 105.148 445.337 105.099C444.863 105.612 444.252 105.375 443.7 105.385C437.637 105.404 431.564 105.424 425.501 105.375C424.328 105.365 424.131 105.828 424.259 106.834C424.575 109.289 424.851 111.743 425.077 114.198C425.491 118.635 425.452 123.081 425.353 127.527C425.255 132.003 424.959 136.468 424.249 140.895C424.121 141.723 424.525 142.62 423.944 143.399C422.337 142.995 420.888 143.468 419.517 144.227C417.457 145.371 415.318 145.706 412.971 145.302C410.901 144.947 408.821 144.395 406.672 144.779C402.63 145.509 399.574 149.807 400.254 153.839C400.678 156.363 400.678 156.363 398.243 155.633C392.89 154.017 387.073 158.147 386.718 163.796C386.541 166.576 386.945 169.228 388.256 171.732C388.986 173.112 388.808 173.359 387.319 173.211C385.762 173.063 384.244 173.162 382.785 173.763C382.262 173.98 381.661 174.266 381.385 173.398C381.237 172.008 381.592 170.638 381.621 169.248C381.671 166.271 381.089 163.412 380.034 160.671C373.587 143.882 367.277 127.044 360.771 110.275C360.376 109.249 359.962 108.224 359.381 107.278C359.134 106.883 358.848 106.449 359.114 105.937Z" fill="#E5EBF9"/>
<path d="M381.651 173.29C381.7 173.635 381.838 173.822 382.223 173.615C384.175 172.57 386.245 172.541 388.542 173.034C386.896 170.303 386.265 167.513 386.255 164.476C386.235 157.211 394.25 152.745 399.859 155.88C399.938 155.929 400.037 155.929 400.283 155.988C400.017 154.441 399.623 153.001 399.85 151.424C400.51 146.958 404.937 143.537 409.383 144.286C410.891 144.543 412.38 144.878 413.898 145.055C415.751 145.282 417.526 144.917 419.152 143.951C420.326 143.261 421.568 142.798 422.958 142.798C423.401 142.798 423.855 142.778 423.924 143.379C422.573 151.739 419.951 159.695 416.481 167.414C413.08 174.966 408.762 181.965 403.882 188.63C400.944 192.652 397.641 196.378 394.309 200.085C391.026 203.733 387.477 207.104 383.849 210.387C378.871 214.893 373.587 219.013 368.135 222.947C360.307 228.606 351.987 233.495 343.597 238.267C343.479 238.336 343.321 238.336 343.183 238.366C343.686 237.567 343.509 236.68 343.439 235.842C343.006 230.617 342.355 225.402 342.276 220.147C342.276 219.98 342.138 219.802 342.059 219.635C341.911 219.526 341.813 219.388 341.744 219.23C341.438 216.371 340.965 213.532 341.211 210.644C341.645 209.934 342.414 209.924 343.104 209.766C348.093 208.613 352.973 207.114 357.715 205.212C358.247 204.995 359.292 204.788 359.065 204.206C358.73 203.368 357.902 204.068 357.34 204.295C352.706 206.089 347.994 207.627 343.144 208.741C342.444 208.899 341.655 209.323 340.975 208.613C340.65 207.302 340.531 205.961 340.462 204.62C340.117 200.095 339.999 195.56 339.614 191.035C339.536 190.128 339.486 189.221 339.723 188.324C340.068 187.535 340.807 187.614 341.458 187.644C344.859 187.821 347.629 189.221 349.67 191.962C349.956 192.346 350.143 192.79 350.508 193.234C351.011 192.346 350.873 191.262 351.533 190.503C352.145 190.158 352.716 190.444 353.308 190.582C361.589 192.1 368.835 190.128 374.937 184.243C377.431 181.837 379.452 179.156 380.438 175.794C380.921 175.005 380.626 173.832 381.651 173.29Z" fill="#C9D3EE"/>
<path d="M388.335 47.8116C382.193 47.437 376.386 48.6101 370.964 51.5578C364.536 55.0477 359.982 60.1938 357.005 66.8581C354.786 71.8071 354.165 76.9729 354.52 82.2669C354.717 85.2639 355.506 88.2017 356.689 90.9818C357.103 91.9479 356.857 92.2042 355.979 92.4803C353.051 93.3971 350.143 94.3829 347.225 95.3392C346.811 95.635 346.377 95.5068 345.983 95.3491C341.014 93.3577 335.789 93.0718 330.525 93.121C330.377 93.121 330.239 93.1112 330.091 93.1112C329.854 93.1013 329.618 93.0521 329.401 92.9535C329.085 92.8056 328.839 92.5591 328.711 92.2437C327.607 89.5424 326.029 87.0482 324.994 84.3175C324.856 83.7259 324.551 83.2133 324.196 82.7204C323.575 81.6557 323.269 80.3741 322.056 79.7333C321.317 79.4277 320.518 79.684 319.769 79.4967C319.109 79.3389 318.971 79.0136 319.473 78.5108C319.878 78.0968 320.371 77.801 320.844 77.456C323.22 75.7209 325.428 73.828 327.074 71.3437C328.602 69.0467 329.411 66.5131 329.48 63.7823C329.509 62.6387 329.933 61.8106 330.692 60.9923C333.758 57.6898 335.543 53.8943 335 49.2608C334.596 45.7512 332.723 43.0204 330.367 40.5459C329.914 40.0628 329.145 40.26 328.711 39.7474C330.061 39.1164 331.54 39.4023 332.94 39.2544C337.771 38.732 342.651 38.6728 347.501 38.9488C357.103 39.4812 366.548 40.9994 375.647 44.2428C377.274 44.8245 378.92 45.3667 380.487 46.0962C382.656 47.1116 384.835 47.8412 387.27 47.5355C387.635 47.4863 388.049 47.4567 388.335 47.8116Z" fill="#E5EBF9"/>
<path d="M274.913 48.1073C272.823 46.9637 271.009 45.5145 269.59 43.5822C266.524 39.4023 267.362 35.38 272.025 33.0041C273.188 32.4126 273.346 31.8704 273.099 30.7465C272.35 27.3158 272.311 23.8654 273.779 20.5923C275.958 15.7321 280.178 13.9773 285.166 13.5337C292.106 12.9126 297.952 15.6237 303.375 19.5473C306.5 21.8148 309.28 24.4371 311.577 27.5721C312.799 29.2283 314.11 30.8353 315.52 32.3436C317.896 34.897 319.957 37.6278 321.258 40.881C322.628 43.1485 323.003 45.623 322.589 48.1862C321.721 53.49 319.227 58.1235 316.516 62.6682C315.609 64.1864 314.633 65.6751 313.568 67.0947C313.164 67.627 312.819 68.2185 312.089 68.396C310.463 67.4693 309.704 65.8722 308.895 64.3047C309.25 63.1612 310.364 63.7527 311.054 63.3682C314.455 62.7668 316.309 61.081 316.871 58.0643C317.699 53.6182 313.105 49.0438 308.639 49.8719C307.16 50.148 306.51 50.7986 306.165 52.2971C305.938 53.2928 306.017 54.2984 305.967 55.304C305.928 55.9842 305.869 56.7137 305.021 56.8813C304.262 57.0292 303.897 56.4377 303.601 55.8757C302.33 53.4013 301.068 50.9268 299.855 48.4228C298.978 46.6088 298.317 46.3919 296.414 47.1707C290.352 49.6452 284.101 50.5226 277.614 49.3297C276.609 49.1523 275.613 48.9452 274.913 48.1073Z" fill="#32477C"/>
<path d="M336.529 9.83675C337.751 6.37643 339.979 3.8428 343.331 2.23587C350.469 -1.18501 359.657 3.54704 360.8 11.3352C360.938 12.2521 361.096 12.4492 362.023 12.1633C367.553 10.4184 372.463 13.7998 372.906 19.7248C372.995 20.8585 372.699 22.0809 372.187 23.1949C371.812 24.0132 371.142 23.9048 370.471 23.9048C362.861 23.9048 355.25 23.9048 347.639 23.9048C343.548 23.9048 339.447 23.9048 335.356 23.9048C335.395 23.1358 336.056 22.9386 336.568 22.6527C337.495 22.1401 338.382 21.588 339.22 20.9472C342.956 18.0587 342.276 12.7253 337.948 10.8127C337.426 10.586 336.677 10.6353 336.529 9.83675Z" fill="#D7DEF1"/>
<path d="M311.952 68.4159C315.54 64.0979 318.251 59.2771 320.46 54.1409C322.323 49.8031 323.023 45.426 321.238 40.8911C323.732 40.5066 326.217 40.1221 328.711 39.7376C329.904 39.5208 330.584 40.1616 331.343 40.9995C333.778 43.7303 335.415 46.7963 335.523 50.4834C335.622 53.8352 334.429 56.8322 332.438 59.5137C332.319 59.6714 332.201 59.8292 332.053 59.9376C330.131 61.4657 329.855 63.6148 329.588 65.8527C329.056 70.3186 326.306 73.4832 323.013 76.2534C321.859 77.2195 320.607 78.0772 319.346 79.0335C320.41 79.4377 321.475 78.7969 322.362 79.4672C321.09 80.2165 319.73 79.8517 318.389 79.7827C317.768 79.625 317.472 79.132 317.206 78.6095C315.589 75.4055 314.012 72.1917 312.031 69.1849C311.873 68.968 311.735 68.6919 311.952 68.4159Z" fill="#C9D3EE"/>
<path d="M141.528 49.6056C146.043 48.5606 150.371 46.9439 154.679 45.2975C155.567 44.9623 155.902 45.1299 156.257 45.9679C156.671 46.934 155.99 47.0129 155.429 47.21C151.85 48.4719 148.261 49.7239 144.683 50.976C139.251 52.4646 133.809 53.9138 128.249 54.8799C117.483 56.7333 106.669 57.9262 95.7356 57.0192C92.0288 56.7136 88.4107 55.8756 85.049 54.18C84.4378 53.8743 83.8857 53.6772 83.1562 54.0222C72.1443 59.1979 60.4521 62.185 48.6318 64.7778C47.3108 65.0637 45.9898 65.3102 44.6786 65.6256C43.8505 65.8228 43.5153 65.6355 43.3181 64.7285C43.1013 63.7131 43.673 63.7525 44.304 63.6244C54.3202 61.5935 64.2378 59.1979 73.8498 55.708C76.5116 54.7419 79.1635 53.7659 81.8055 52.366C80.9577 51.5379 80.1691 50.8478 79.4888 50.069C77.5467 47.841 76.2848 45.2581 75.9891 42.3202C75.3384 35.8827 75.9299 29.6521 79.617 24.0722C81.8647 20.6711 85.0687 18.6895 89.2093 18.4332C94.5033 18.1079 98.5058 21.1048 99.5311 26.3002C101.01 33.8025 98.7818 40.2993 93.8033 45.9974C91.6443 48.4621 89.1402 50.5225 86.2912 52.4547C88.7952 53.8053 91.3288 54.2884 93.8723 54.7123C99.8268 55.7179 105.801 55.3531 111.765 54.9292C120.963 54.2785 130.033 52.7702 138.955 50.414C139.803 50.1873 140.661 49.8817 141.528 49.6056Z" fill="#32477B"/>
<path d="M173.558 40.8516C174.475 35.6858 176.743 31.3875 181.327 28.4694C184.422 26.4878 187.853 25.5217 191.402 24.7626C192.428 24.5457 193.512 24.6739 194.488 24.2204C195.592 24.2007 196.696 24.1908 197.8 24.1514C198.845 24.1119 199.683 24.4373 200.245 25.3541C200.462 27.4145 199.506 29.1989 198.826 31.0128C197.071 35.6562 194.922 40.0629 191.156 43.5331C186.059 48.2257 178.941 47.2694 174.18 42.9613C174.229 41.9952 175.106 42.1332 175.648 41.936C180.065 40.339 184.206 38.2391 187.932 35.3802C188.356 35.0548 188.76 34.7295 189.115 34.3253C189.322 34.0887 189.391 33.8127 189.164 33.5563C188.947 33.3099 188.671 33.2901 188.376 33.4183C188.06 33.5563 187.814 33.7831 187.557 33.9999C183.762 37.1448 179.345 39.1362 174.771 40.8121C174.387 40.9502 173.972 41.1966 173.558 40.8516Z" fill="#77B9C9"/>
<path d="M256.409 44.3314C262.255 45.8102 268.101 47.2988 273.947 48.7776C274.174 48.8367 274.42 48.8564 274.647 48.8959C275.702 48.5508 276.628 49.1029 277.575 49.3494C279.615 49.8718 281.735 50.0887 283.667 51.0253C287.078 52.5928 289.523 55.1264 291.101 58.498C291.761 59.9176 292.007 61.426 291.998 62.9639C291.998 63.3286 292.136 64.3441 291.12 63.6638C290.854 62.9442 290.312 62.6287 289.553 62.6583C289.405 62.6681 289.267 62.6484 289.119 62.6484C282.672 62.8357 276.234 62.1851 269.786 62.3527C268.574 62.3822 267.381 62.2541 266.218 61.909C265.252 61.3471 265.538 60.3908 265.557 59.5726C265.656 56.546 264.759 53.7955 263.221 51.2422C261.811 48.9057 259.889 47.0523 257.463 45.7412C257 45.4947 256.478 45.3074 256.182 44.844C256.054 44.6469 255.847 44.3117 256.409 44.3314Z" fill="#78BACB"/>
<path d="M191.59 56.7532C193.009 49.8128 197.12 45.3667 204.011 43.5034C206.22 43.2668 208.428 43.1978 210.646 43.2274C212.085 43.6414 213.623 43.6907 215.003 44.3512C215.467 45.1498 216.423 45.0216 217.093 45.4751C221.451 48.4031 224.024 52.376 224.675 57.601C224.862 59.1389 224.951 60.6374 224.566 62.1458C223.876 66.7891 221.618 70.486 217.793 73.2464C217.271 73.6309 216.581 73.7689 216.186 74.3407C211.464 75.8885 206.722 76.8546 201.872 74.8336C196.164 72.4479 192.664 68.2974 191.59 62.1852C191.599 60.3712 191.619 58.5671 191.59 56.7532Z" fill="#9ACEDB"/>
<path d="M256.409 44.3314C256.093 44.9328 256.695 44.9131 256.951 45.0511C263.044 48.2945 266.031 53.3519 265.942 60.2134C265.932 60.6965 265.952 61.1697 265.962 61.6528C266.455 62.8456 265.853 63.93 265.489 64.9652C264.118 68.8396 261.683 71.8957 258.085 73.9857C257.503 74.2321 256.951 74.5279 256.468 74.9321C255.601 75.2476 254.782 75.8588 253.777 75.4546C249.055 76.6869 244.648 75.8391 240.488 73.4238C238.674 72.3689 237.461 70.624 235.824 69.3621C234.267 67.1636 233.281 64.7384 232.867 62.0767C232.591 58.3699 233.025 54.8011 234.878 51.4887C235.223 50.8676 235.815 50.3648 235.834 49.586C236.84 48.6494 237.796 47.6636 238.841 46.7862C241.158 44.8342 243.859 43.6906 246.856 43.2273C248.67 43.2766 250.494 43.247 252.308 43.247C253.58 43.5132 254.841 43.7794 256.113 44.0455C256.202 44.1441 256.301 44.2329 256.409 44.3314Z" fill="#9ACEDB"/>
<path d="M283.579 51.2325C280.601 50.4537 277.624 49.6749 274.657 48.8961C274.745 48.6299 274.834 48.3736 274.913 48.1173C282.218 50.5819 289.336 49.6059 296.296 46.7962C298.356 45.9681 299.194 46.1653 300.17 48.1863C301.383 50.6903 302.625 53.1746 303.858 55.659C304.094 56.1223 304.301 56.7434 304.942 56.635C305.711 56.497 305.553 55.7773 305.583 55.2252C305.622 54.3675 305.612 53.5 305.701 52.6423C305.918 50.4537 306.785 49.6355 309.013 49.4186C312.001 49.1327 315.303 51.0945 316.614 53.9239C317.965 56.8519 317.462 59.9474 315.254 61.9881C314.091 63.0627 312.73 63.7232 311.094 63.6739C309.408 64.2555 308.461 63.2796 307.476 62.1163C304.193 58.232 300.456 54.9196 295.783 52.7014C292.422 51.1044 288.912 50.6114 285.245 50.7988C284.643 50.8185 284.131 51.1044 283.579 51.2325Z" fill="#FEC0C1"/>
<path d="M233.231 62.205C233.655 64.295 234.257 66.316 235.459 68.1201C235.686 68.4651 236.209 68.8003 235.824 69.3524C229.278 71.0086 222.742 72.6747 216.196 74.3309C215.398 73.8971 216.226 73.838 216.373 73.7591C219.39 71.955 221.608 69.4707 223.087 66.2963C223.698 64.9851 223.896 63.5753 224.27 62.205C224.457 61.4853 224.96 61.2093 225.66 61.3079C227.602 61.5938 229.554 61.4262 231.496 61.4853C232.157 61.5149 232.847 61.4952 233.231 62.205Z" fill="#579EAC"/>
<path d="M336.529 9.83679C337.653 10.3691 338.846 10.7339 339.831 11.5423C342.749 13.9576 342.73 18.4038 339.802 20.9867C338.461 22.1697 336.746 22.7809 335.365 23.9048C334.409 24.3189 333.759 25.0681 333.197 25.8962C332.497 26.9313 331.59 27.4834 330.426 26.8229C329.273 26.1722 328.987 25.1273 329.618 23.9147C329.687 22.8204 330.545 22.2979 331.284 21.7359C332.723 20.6515 334.301 19.7643 335.947 19.015C336.341 18.8376 336.647 18.5714 336.844 18.177C337.544 16.3631 337.298 14.7759 335.691 13.5337C334.656 12.9619 333.561 13.0309 332.487 13.3267C331.373 13.6323 330.545 13.3464 330.21 12.2521C329.845 11.0789 330.456 10.3987 331.6 10.0142C333.226 9.46216 334.873 9.56075 336.529 9.83679Z" fill="#32477B"/>
<path d="M289.671 259.65C290.618 255.835 292.096 252.197 293.279 248.461C294.117 245.819 295.152 243.226 295.862 240.554C296.207 239.253 295.99 237.794 296.03 236.414C296.05 235.862 295.872 235.171 296.819 235.221C297.666 235.27 297.469 235.921 297.469 236.404C297.489 243.403 297.489 250.403 297.499 257.402C294.876 258.152 292.274 258.901 289.671 259.65Z" fill="#5393A5"/>
<path d="M325.783 32.5309C325.773 30.9634 327.005 29.6917 328.573 29.6621C330.17 29.6325 331.57 30.9634 331.57 32.5211C331.579 34.0195 330.248 35.3702 328.73 35.4096C327.133 35.449 325.792 34.1477 325.783 32.5309Z" fill="#33487C"/>
<path d="M335.937 19.0151C335.148 19.863 334.083 20.2967 333.117 20.8784C331.767 21.6868 330.564 22.6628 329.608 23.9148C326.818 23.9148 324.028 23.9148 321.238 23.9148C321.208 23.8261 321.189 23.7275 321.159 23.6388C322.342 23.2937 323.535 22.9487 324.718 22.5938C328.03 21.6178 331.323 20.5826 334.547 19.3405C334.99 19.1827 335.473 19.1236 335.937 19.0151Z" fill="#D8DFF1"/>
<path d="M335.681 13.5337C337.791 14.5393 338.175 16.087 336.834 18.177C336.45 16.6292 336.065 15.0815 335.681 13.5337Z" fill="#D0D7EC"/>
<path d="M191.59 56.7532C192.023 58.5573 192.004 60.3712 191.599 62.1753C191.491 61.1303 191.373 60.0853 191.264 59.0403C191.373 58.2812 191.481 57.5221 191.59 56.7532Z" fill="#8DC7D4"/>
<path d="M169.28 132.161C169.625 132.308 169.95 132.545 170.364 132.318C174.308 130.199 176.092 128.05 175.215 123.426C173.687 115.421 170.364 108.067 166.263 101.047C165.632 99.9728 164.992 98.9179 164.282 97.8926C162.852 95.8125 160.841 95.1125 158.475 95.0337C157.992 95.0139 157.509 95.0041 157.026 95.0337C154.256 95.2308 151.614 94.8267 149.011 93.7619C146.211 92.6184 143.195 92.2437 140.198 91.8592C139.369 91.7508 138.601 91.5339 138.029 90.8636C136.915 89.5524 135.801 88.2412 134.667 86.9399C134.154 86.3484 134.342 86.1019 135.061 86.1019C139.024 86.1118 142.849 85.1851 146.665 84.2978C147.532 84.1006 147.996 84.2288 148.459 84.9485C148.824 85.5005 149.326 85.9737 149.8 86.447C151.209 87.837 152.659 87.4427 153.201 85.5301C153.299 85.1654 153.339 84.7809 153.349 84.4062C153.428 81.2811 155.725 79.7038 158.791 80.66C160.082 81.0642 161.403 81.3107 162.754 81.2121C163.493 81.1628 163.73 81.4684 163.789 82.2078C164.094 86.3287 165.001 90.3016 166.875 94.0281C168.698 97.656 171.478 100.347 174.988 102.319C177.423 103.689 179.996 104.754 182.648 105.632C182.983 105.74 183.575 106.322 183.742 105.385C184.334 105.286 184.452 105.799 184.659 106.134C187.232 110.127 189.805 114.13 192.181 118.24C192.418 118.655 192.645 119.078 192.94 119.463C194.074 120.991 195.72 121.228 197.219 120.045C198.086 119.354 198.816 118.517 199.595 117.738C199.851 117.481 200.038 117.067 200.521 117.195C200.571 117.915 201.212 117.817 201.616 117.866C207.62 118.615 213.584 118.94 219.193 115.973C221.688 114.652 223.718 112.73 225.759 110.876C229.318 107.652 232.709 104.241 236.14 100.88C236.751 100.278 237.461 99.6376 237.737 98.8686C238.565 96.542 240.823 96.9265 242.479 96.2068C242.706 96.1082 242.933 96.2955 243.08 96.5124C243.504 96.9561 243.406 97.4884 243.307 98.0109C242.371 102.851 241.454 107.692 240.389 112.513C240.281 112.986 240.32 113.607 239.63 113.755C236.879 117.393 234.257 121.119 232.926 125.526C232.295 127.616 231.931 129.804 232.069 132.023C232.118 132.792 231.881 133.196 231.122 133.521C224.852 136.222 218.395 138.381 211.819 140.225C207.482 141.437 203.104 142.492 198.658 143.271C195.02 143.902 191.383 144.474 187.843 145.539C181.613 147.402 177.157 151.424 174.012 156.974C171.321 161.726 169.379 166.833 167.111 171.792C165.228 175.903 162.724 179.639 159.845 183.119C155.991 187.772 151.85 192.149 147.345 196.201C144.387 198.863 141.607 201.742 138.995 204.758C138.384 205.468 137.93 205.508 137.082 205.005C134.204 203.309 131.088 202.737 127.805 203.644C127.046 203.851 126.731 203.772 126.721 202.934C126.701 201.071 126.12 199.336 125.213 197.749C124.671 196.793 124.917 196.152 125.489 195.452C128.21 192.13 131.364 189.281 134.884 186.826C141.755 182.025 148.666 177.293 155.449 172.383C158.8 169.948 161.926 167.148 163.128 162.958C164.262 159.035 164.124 155.121 162.409 151.345C162.014 150.478 161.659 149.581 161.216 148.733C160.94 148.21 160.733 147.56 160.003 147.422C162.202 145.46 164.913 144.119 166.884 141.871C169.014 139.446 169.891 136.646 169.359 133.442C169.3 133.018 169.31 132.585 169.28 132.161Z" fill="#D7DEF1"/>
<path d="M159.727 147.698C159.865 149.235 160.969 150.349 161.502 151.72C163.513 156.866 163.523 161.844 160.23 166.419C158.653 168.617 156.572 170.441 154.295 172.018C147.651 176.622 141.006 181.226 134.42 185.919C130.714 188.561 127.214 191.469 124.463 195.146C124.118 195.61 123.931 195.698 123.487 195.294C120.214 192.297 116.626 191.686 112.692 193.963C112.574 194.032 112.416 194.022 112.268 194.052C115.354 189.971 118.775 186.165 122.137 182.311C127.194 176.514 132.725 171.18 138.236 165.837C142.495 161.716 147.039 157.891 151.633 154.115C154.295 151.927 156.947 149.728 159.727 147.698Z" fill="#D7DEF1"/>
<path d="M163.493 116.899C164.153 117.166 164.045 116.702 164.075 116.318C164.242 114.11 163.887 111.921 163.69 109.752C163.424 106.844 162.556 104.083 160.772 101.648C159.254 99.5782 157.253 98.0402 155.34 96.2854C157.391 96.4037 159.461 95.7235 161.472 96.7291C162.566 97.2811 163.306 98.1092 163.917 99.0852C167.634 105.03 170.581 111.339 172.76 117.994C173.47 120.153 174.15 122.302 174.268 124.648C174.436 127.911 172.937 129.893 170.197 131.224C169.743 131.451 169.3 131.559 169.28 132.16C168.314 129.242 167.328 126.324 166.401 123.396C165.682 121.109 164.528 119.029 163.493 116.899Z" fill="#D7DEF1"/>
<path d="M143.52 96.4629C145.738 96.6403 147.926 96.2854 150.125 96.1375C151.85 96.0192 153.299 96.4924 154.719 97.4191C159.51 100.554 162.359 104.764 162.684 110.61C162.783 112.325 162.882 114.031 162.921 115.746C161.018 113.193 159.244 110.511 156.819 108.392C153.161 105.188 149.464 102.033 145.817 98.8289C144.988 98.1092 144.279 97.2614 143.52 96.4629Z" fill="#D7DEF1"/>
<path d="M239.639 113.745C241.02 108.047 242.134 102.289 243.09 96.5025C244.125 92.9337 244.5 89.2269 245.377 85.6286C245.495 85.116 245.584 84.6033 245.683 84.0907C245.929 83.5977 246.363 83.4203 246.876 83.4696C250.306 83.8048 253.757 84.0019 257.178 84.3766C259.701 84.6427 262.225 84.8794 264.749 85.0962C267.421 85.3328 270.092 85.6089 272.774 85.7666C273.286 85.7962 273.819 85.9342 274.272 86.23C274.696 86.644 274.706 87.1764 274.598 87.6791C274.292 89.01 274.312 90.4099 273.671 91.6521C273.237 92.2633 273.109 92.9633 272.991 93.6829C270.763 107.514 268.505 121.336 266.247 135.167C264.305 147.047 262.393 158.936 260.421 170.816C259.81 174.503 259.238 178.2 258.647 181.896C258.587 182.261 258.44 182.636 258.686 183.109C259.09 182.192 259.09 181.275 259.238 180.388C262.166 162.544 265.084 144.691 267.953 126.837C269.737 115.707 271.61 104.586 273.385 93.4562C273.484 92.845 273.543 92.2042 274.065 91.7605C277.131 91.7605 280.207 91.6225 283.273 91.8591C284.003 92.1746 284.072 92.8943 284.239 93.5252C285.886 99.4699 289.553 102.674 295.695 103.177C297.952 103.364 300.18 102.763 302.201 101.599C302.724 101.294 303.207 100.811 303.917 101.037C304.952 102.171 305.356 103.64 305.918 104.991C309.033 112.473 312.77 119.69 315.175 127.468C318.054 136.764 321.159 145.992 324.205 155.239C326.749 162.939 329.164 170.668 331.806 178.328C332.861 181.384 333.255 184.479 332.447 187.664C332.378 187.94 332.339 188.235 332.23 188.502C331.915 189.28 331.786 190.542 330.889 190.493C330.032 190.444 330.525 189.192 330.278 188.511C330.249 188.423 330.219 188.334 330.18 188.245C328.878 185.386 327.311 184.686 324.412 185.869C320.804 187.338 318.28 189.941 316.871 193.569C316.437 194.683 316.181 195.866 315.895 197.029C315.569 199.05 315.352 199.188 313.341 199.395C305.829 200.174 298.307 200.844 290.785 201.564C284.279 202.195 277.772 202.875 271.246 203.427C267.854 203.713 264.463 204.039 261.072 204.403C260.382 204.561 259.692 204.502 258.992 204.531C258.104 204.551 257.513 204.167 257.266 203.299C257.099 201.032 256.843 198.754 256.833 196.477C256.823 193.963 256.29 191.499 256.586 188.847C255.738 189.221 255.531 190.01 254.831 190.158C253.885 190.197 253.678 189.438 253.392 188.797C251.361 184.331 248.088 181.196 243.317 179.826C238.456 178.426 233.823 178.949 229.525 181.768C228.864 182.202 228.263 183.079 227.247 182.458C226.34 180.526 226.577 178.485 226.932 176.533C228.49 167.75 230.353 159.025 232.068 150.28C232.512 148.023 232.916 145.755 233.478 143.527C233.685 143.015 233.862 142.482 234.099 141.98C234.503 141.053 234.454 140.037 234.641 139.061C234.345 137.524 235.085 136.124 235.243 134.645C235.41 134.162 235.43 133.639 235.676 133.186C235.736 133.137 235.785 133.087 235.844 133.048C236.248 132.525 236.071 131.894 236.15 131.313C235.952 130.79 236.041 130.278 236.14 129.755C236.879 126.048 237.638 122.341 238.387 118.635C238.486 118.122 238.565 117.59 239.009 117.215C239.413 116.081 239.62 114.928 239.639 113.745Z" fill="#4E88C4"/>
<path d="M234.109 141.97C234.07 142.463 234.218 142.985 233.823 143.409C233.409 143.665 233.173 144.119 232.709 144.316C227.987 145.844 223.186 147.086 218.385 148.338C209.946 150.537 201.576 152.962 193.877 157.201C183.989 162.633 177.236 170.53 174.357 181.522C172.208 189.744 170.601 198.064 169.664 206.503C169.201 210.732 168.984 214.991 168.728 219.24C168.531 219.92 168.324 220.581 167.535 220.818C166.944 219.684 167.111 218.422 167.318 217.318C167.722 215.277 167.535 213.227 167.762 211.186C168.353 205.645 168.955 200.125 169.97 194.643C171.005 189.113 172.139 183.602 173.904 178.249C175.481 173.477 177.778 169.1 181.189 165.344C185.172 160.957 189.864 157.487 195.158 154.884C198.638 153.169 202.217 151.661 205.924 150.448C214.274 147.727 222.851 145.844 231.24 143.31C232.285 142.995 233.577 142.946 234.07 141.644C234.089 141.753 234.099 141.861 234.109 141.97Z" fill="#CAD4EE"/>
<path d="M239.029 117.205C238.171 121.927 237.313 126.64 236.17 131.303C236.12 131.322 236.081 131.332 236.032 131.352C233.133 132.732 233.035 132.732 233.251 129.479C233.498 125.792 234.987 122.499 236.948 119.404C237.461 118.595 237.984 117.797 238.536 117.028C238.831 116.604 238.969 116.85 239.029 117.205Z" fill="#D7DEF1"/>
<path d="M235.568 134.497C235.479 136.055 235.056 137.553 234.661 139.052C233.774 137.553 233.488 135.828 233.508 134.191C233.518 133.107 234.799 132.89 235.864 133.038V133.028C235.47 133.462 235.874 134.044 235.568 134.497Z" fill="#D6DDF1"/>
<path d="M232.936 143.951C233.212 143.734 233.192 143.054 233.823 143.399C232.817 148.545 231.812 153.701 230.806 158.847C229.633 164.841 228.411 170.825 227.287 176.819C226.932 178.702 227.021 180.625 227.464 182.508C227.839 182.843 227.987 183.287 228.144 183.75C229.978 189.211 233.685 192.839 239.294 194.17C243.859 195.245 248.285 194.614 252.199 191.745C253.007 191.154 253.658 190.335 254.683 190.059C255.334 189.31 255.985 188.561 256.823 187.585C257.089 192.977 257.345 198.123 257.602 203.279C258.38 205.902 257.483 208.465 257.316 211.048C257.178 213.089 256.833 215.11 256.764 217.15C256.655 217.732 256.547 218.314 256.133 218.787C255.916 220.709 255.699 222.641 255.482 224.564C255.107 225.116 254.565 225.146 253.964 225.146C224.842 225.136 195.71 225.136 166.588 225.126C166.174 225.126 165.642 225.333 165.386 224.889C165.1 224.396 165.533 223.992 165.78 223.598C166.361 222.661 166.953 221.734 167.544 220.808C167.83 220.325 168.126 219.852 168.412 219.368C168.925 217.525 170.147 216.076 171.172 214.528C177.364 205.143 184.146 196.191 191.52 187.703C196.272 182.232 201.152 176.869 206.357 171.821C209.561 168.716 212.962 165.807 216.107 162.643C221.529 157.191 226.705 151.523 231.339 145.391C231.792 144.799 232.364 144.385 232.936 143.951Z" fill="#E5EBF9"/>
<path d="M233.231 62.205C232.098 61.6529 230.895 62.0078 229.722 61.9191C228.361 61.8107 226.971 62.1064 225.621 61.6726C225.049 61.4853 224.625 61.7909 224.27 62.205C224.99 57.3645 223.807 53.0366 220.76 49.2017C219.183 47.2103 217.142 45.7907 214.865 44.7062C214.786 44.6668 214.737 44.5978 214.668 44.5386C214.786 44.4795 214.895 44.4105 215.013 44.3513C219.173 45.3963 223.333 46.4413 227.494 47.4863C230.274 48.1863 233.054 48.8862 235.834 49.5862C236.011 49.8129 236.386 49.9115 236.061 50.365C233.488 53.9239 232.945 57.9757 233.231 62.205Z" fill="#78BACB"/>
<path d="M173.558 40.8515C178.704 39.0671 183.653 36.9377 187.814 33.3098C188.356 32.8366 188.947 32.393 189.578 33.3098C189.933 33.8422 189.953 34.1182 189.43 34.5815C186.581 37.1349 183.308 39.008 179.858 40.5854C177.995 41.4332 176.082 42.1627 174.189 42.9514C171.636 43.5429 169.073 44.1245 166.519 44.7456C165.8 44.9231 165.317 45.071 165.1 44.0358C164.903 43.0598 165.277 42.8824 166.056 42.7641C168.609 42.35 171.084 41.6106 173.558 40.8515Z" fill="#5394A5"/>
<path d="M210.646 43.2275C208.448 43.681 206.23 43.5528 204.011 43.5035C206.2 42.9711 208.408 42.6655 210.646 43.2275Z" fill="#97CAD9"/>
<path d="M252.298 43.247C250.484 43.6414 248.66 43.6808 246.846 43.2273C248.67 42.8823 250.484 42.8823 252.298 43.247Z" fill="#8CC6D5"/>
<path d="M325.221 84.0908C326.601 86.9497 327.981 89.8087 329.361 92.6676C330.288 95.7632 331.905 98.563 333.265 101.461C336.459 108.224 339.644 114.997 342.907 121.74C346.476 129.124 349.946 136.557 353.515 143.941C356.827 150.813 360.09 157.704 363.383 164.585C363.59 165.009 363.738 165.482 364.231 165.778C363.984 164.674 363.501 163.639 363.008 162.643C359.696 156.038 356.689 149.295 353.455 142.65C349.788 135.098 346.229 127.498 342.611 119.916C338.54 111.389 334.478 102.851 330.446 94.3041C330.239 93.8704 329.795 93.407 330.288 92.8746C331.727 92.8352 333.177 92.9338 334.616 92.8352C335.661 92.7662 336.085 93.2493 336.312 94.1563C336.844 96.3744 337.82 98.3757 339.21 100.19C343.203 105.415 349.897 107.554 356.63 105.73C357.35 105.533 358.079 105.119 358.838 105.661C358.937 105.75 359.035 105.839 359.134 105.927C362.782 113.035 365.108 120.666 368.007 128.059C372.236 138.854 376.337 149.709 380.438 160.563C381.996 164.674 382.439 168.933 381.67 173.28C381.384 174.148 381.099 175.015 380.813 175.883C380.083 176.139 379.64 175.607 379.147 175.262C370.826 169.504 359.627 172.363 355.2 181.423C354.175 183.513 353.692 185.751 353.702 188.097C353.702 189.024 353.988 190.02 353.337 190.878C352.765 190.769 352.194 190.661 351.622 190.542C349.778 190.444 348.25 189.527 346.781 188.581C343.735 186.619 341.182 184.144 339.328 180.999C339.486 180.211 339.249 179.521 338.934 178.791C334.123 167.809 329.292 156.836 324.462 145.864C318.754 132.92 313.134 119.946 307.338 107.041C306.608 105.424 305.977 103.768 305.198 102.161C304.912 101.58 304.597 101.087 304.025 100.761C301.738 95.9899 299.687 91.11 297.578 86.2596C297.351 85.7273 296.976 85.0766 297.804 84.6527C299.658 84.3175 301.541 84.4062 303.394 84.3274C306.362 84.1894 309.329 84.0021 312.296 83.9035C315.599 83.795 318.902 83.7162 322.194 83.4401C323.2 83.3613 324.412 82.9275 325.221 84.0908Z" fill="#4E88C4"/>
<path d="M358.818 105.671C357.724 105.582 356.768 106.124 355.752 106.371C347.047 108.471 338.125 103.157 335.986 94.4914C335.71 93.3675 335.286 92.8746 334.074 92.983C332.782 93.0915 331.471 93.0027 330.18 93.0027C329.933 93.0816 329.844 92.9732 329.874 92.7366C335.819 92.5591 341.665 92.9929 347.225 95.3293C350.429 97.0841 353.455 99.0558 355.92 101.787C356.995 102.999 358.01 104.251 358.818 105.671Z" fill="#7BAADA"/>
<path d="M315.668 196.645C316.545 191.538 319.237 187.782 324.018 185.613C327.163 184.184 329.243 184.972 330.465 187.999C331.165 191.025 330.456 193.825 329.164 196.566C327.764 199.533 326.029 202.274 323.85 204.739C321.405 207.036 321.415 207.045 324.225 208.79C324.846 209.175 325.477 209.5 326.226 209.53C328.385 209.983 330.554 210.309 332.753 209.766C335.089 209.668 337.356 209.106 339.653 208.731C340.166 208.652 340.669 208.455 341.191 208.692C346.702 207.745 351.957 205.912 357.162 203.94C357.566 203.792 357.98 203.654 358.355 203.447C359.094 203.033 359.449 203.299 359.765 204.019C360.129 204.857 359.499 204.867 359.045 205.064C353.86 207.243 348.516 208.928 343.025 210.18C342.512 210.299 342 210.427 341.487 210.555C340.521 211.492 339.22 211.403 338.037 211.659C337.258 211.827 336.459 211.994 335.651 212.014C334.123 212.477 332.555 211.758 331.017 212.142C327.35 212.231 323.929 211.492 320.972 209.204C320.203 208.613 319.532 208.514 318.704 209.195C311.241 215.405 302.388 218.876 293.329 221.942C286.773 224.17 280.148 226.23 273.848 229.158C273.227 229.444 272.931 229.355 272.616 228.744C272.281 228.073 272.547 227.827 273.109 227.561C278.127 225.215 283.372 223.45 288.616 221.656C291.298 220.739 293.96 219.773 296.631 218.826C297.006 218.205 297.706 218.185 298.278 217.949C304.459 215.603 310.423 212.852 315.717 208.83C316.407 208.081 317.778 207.814 317.837 206.69C317.886 205.734 316.811 205.034 316.466 204.098C315.234 201.722 315.135 199.218 315.668 196.645Z" fill="#32477B"/>
<path d="M316.89 204.403C318.714 206.888 318.714 206.888 316.003 209.027C312.868 208.997 309.763 208.623 306.637 208.445C304.518 208.327 302.408 208.13 300.298 207.972C299.017 207.883 298.731 208.416 298.761 209.54C298.81 211.797 298.78 214.045 298.77 216.302C298.77 216.973 298.83 217.663 298.337 218.215C297.854 218.639 297.193 218.59 296.641 218.836C296.631 217.732 296.601 216.638 296.621 215.534C296.631 214.843 296.454 214.518 295.665 214.469C291.199 214.163 289.671 212.556 289.681 208.061C289.681 206.799 289.089 206.493 288.064 206.434C283.569 206.138 279.083 205.872 274.588 205.537C271.63 205.32 268.682 205.015 265.735 204.709C264.808 204.61 264.443 204.906 264.463 205.882C264.522 208.623 263.94 211.285 263.073 213.867C262.225 216.381 260.835 218.383 257.946 218.935C257.266 219.063 256.734 218.728 256.123 218.787C256.064 218.284 256.142 217.811 256.369 217.357C260.086 216.943 261.229 214.242 261.949 211.156C262.304 209.609 262.481 208.041 262.619 206.474C262.738 205.143 262.432 204.936 261.101 204.788C260.382 204.709 259.425 205.231 259.001 204.147C259.672 204.137 260.352 204.137 261.022 204.127C264.325 203.97 267.618 203.457 270.93 203.841C271.798 203.94 272.655 203.94 273.523 203.94C287.098 203.94 300.673 203.94 314.258 203.95C315.145 203.95 316.092 203.782 316.89 204.403Z" fill="#5393A5"/>
<path d="M331.017 212.152C332.536 211.708 334.133 211.945 335.671 211.629C334.359 213.926 337.514 218.698 340.413 218.718C341.024 218.727 341.674 218.708 342.039 219.368C342.049 219.457 342.059 219.546 342.069 219.634C342.088 220.413 341.635 220.532 340.955 220.551C338.086 220.62 335.552 218.856 334.231 215.8C334.024 215.316 333.719 214.833 333.689 214.331C333.571 212.615 332.743 211.876 331.017 212.152Z" fill="#5394A5"/>
<path d="M205.736 111.142C207.205 111.073 207.856 109.831 208.595 108.934C210.301 106.844 212.43 105.168 214.067 103.029C214.786 102.082 215.782 101.363 216.472 100.357C217.123 99.4009 218.03 98.9868 219.292 99.0164C223.087 99.1051 226.903 99.1939 230.678 98.7502C232.482 98.5333 234.267 98.1686 236.061 97.8728C236.327 97.8334 236.643 97.5475 236.86 97.8432C237.106 98.1784 236.81 98.4545 236.603 98.7207C234.523 101.382 232.058 103.699 229.554 105.917C227.474 107.761 225.572 109.792 223.442 111.586C219.765 114.701 215.822 116.84 210.853 117.274C207.452 117.57 204.169 116.969 200.827 116.9C200.669 116.131 201.33 115.835 201.724 115.401C203.025 113.952 204.613 112.759 205.736 111.142Z" fill="#D7DEF1"/>
<path d="M205.736 111.142C206.141 111.822 205.5 112.069 205.174 112.404C203.735 113.912 202.276 115.401 200.817 116.899C200.718 116.998 200.62 117.087 200.531 117.185C199.604 118.151 198.717 119.157 197.751 120.074C195.976 121.77 193.817 121.553 192.546 119.453C189.677 114.721 186.808 109.989 183.752 105.375C183.555 105.089 183.368 104.803 183.17 104.517C182.806 104.212 182.352 104.014 182.076 103.61C180.42 101.146 178.271 99.1148 176.2 97.0149C175.757 96.5615 175.215 96.0882 175.362 95.3094C177.965 94.8264 179.572 95.7629 180.706 98.2473C181.544 100.081 183.269 101.412 184.905 102.703C190.525 107.09 197.041 109.358 203.903 110.846C204.504 110.984 205.125 111.044 205.736 111.142Z" fill="#E5EBF9"/>
<path d="M175.362 95.3096C175.895 96.2166 176.565 97.0151 177.354 97.7151C179.601 99.7262 181.435 102.082 183.17 104.517C179.049 103.394 175.185 101.708 171.932 98.9079C168.323 95.8025 166.588 91.6225 165.553 87.1172C165.179 85.4906 164.902 83.8442 164.932 82.1584C164.942 81.5176 165.149 81.2711 165.829 81.1726C169.132 80.6599 169.132 80.6304 170.196 83.8344C171.527 87.8369 173.075 91.7408 175.362 95.3096Z" fill="#D7DEF1"/>
<path d="M253.767 75.4548C254.634 75.1886 255.502 74.9224 256.379 74.6563C257.188 74.1831 258.124 74.0352 258.992 73.7098C261.644 72.9211 264.335 72.2606 267.026 71.6001C267.677 71.4424 268.328 71.2551 269.008 71.4227C269.54 71.5804 269.738 72.0142 269.885 72.4775C270.329 73.8478 270.763 75.2182 271.059 76.6181C271.433 78.363 270.684 79.3982 268.89 79.5953C265.262 79.9995 261.624 80.2854 257.976 80.453C256.685 80.5122 255.413 80.8375 254.102 80.7488C253.57 80.7389 253.027 80.7586 252.633 80.2953C252.889 78.6687 253.215 77.0321 253.767 75.4548Z" fill="#FEC0C1"/>
<path d="M252.623 80.3052C253.096 80.3249 253.57 80.3446 254.043 80.3643C255.995 80.7685 257.957 80.3347 259.918 80.4136C263.813 80.5615 267.687 80.9164 271.581 81.084C274.46 81.3403 275.524 82.7895 274.706 85.3527C273.819 86.2991 272.685 85.8555 271.699 85.7569C263.773 85.0372 255.847 84.2584 247.911 83.6176C247.231 83.5585 246.422 83.6669 245.959 82.9275C246.324 80.7488 247.526 79.832 249.616 80.1869C250.632 80.3545 251.628 80.3446 252.623 80.3052Z" fill="#4174A8"/>
<path d="M245.969 82.9272C248.699 83.43 251.47 83.5188 254.23 83.7948C258.035 84.1793 261.831 84.5342 265.636 84.8891C268.111 85.1158 270.585 85.3229 273.07 85.52C273.602 85.5595 274.134 85.5693 274.588 85.2243C274.953 85.7172 274.726 86.082 274.312 86.3974C267.845 85.8158 261.368 85.2341 254.9 84.6426C252.189 84.3962 249.488 84.0905 246.777 83.8145C246.373 83.7751 246.018 83.8934 245.683 84.1004C245.624 83.6666 245.771 83.292 245.969 82.9272Z" fill="#649EDA"/>
<path d="M149.366 95.1323C147.246 95.1224 145.196 95.704 143.125 95.5562C141.607 95.4477 141.045 93.9591 140.138 92.9634C143.333 93.2986 146.408 93.9394 149.366 95.1323Z" fill="#D7DEF1"/>
<path d="M323.535 204.679C326.305 201.219 328.661 197.532 330.032 193.263C330.594 191.508 330.397 189.763 330.466 187.999C331.087 188.679 330.515 189.566 330.929 190.463C332.477 187.703 332.792 184.874 332.319 181.956C331.767 178.545 330.347 175.38 329.312 172.117C327.212 165.522 325.053 158.956 322.914 152.37C320.834 145.972 318.685 139.594 316.674 133.166C314.041 124.767 310.827 116.604 307.081 108.638C305.898 106.134 304.893 103.551 303.808 100.998C303.798 100.801 303.887 100.702 304.094 100.751C304.627 100.475 304.952 100.594 305.198 101.175C307.939 107.495 310.68 113.814 313.45 120.123C316.023 125.989 318.655 131.835 321.238 137.701C323.762 143.439 326.256 149.186 328.78 154.924C331.284 160.622 333.798 166.31 336.312 171.999C337.455 174.581 338.569 177.174 339.782 179.718C340.097 180.388 339.575 180.674 339.456 181.137C340.531 183.355 340.294 185.682 340.018 188.009C340.285 192.711 340.551 197.414 340.797 202.126C340.847 202.984 340.837 203.841 340.846 204.699C340.304 205.222 339.614 205.172 338.954 205.172C334.448 205.182 329.943 205.192 325.438 205.172C324.757 205.153 324.058 205.231 323.535 204.679Z" fill="#4174A8"/>
<path d="M353.318 190.887C353.18 187.368 353.397 183.937 355.082 180.704C359.755 171.772 371.694 169.09 379.689 175.222C380.024 175.479 380.419 175.676 380.783 175.893C380.231 178.387 378.851 180.497 377.264 182.38C371.792 188.866 364.763 191.962 356.216 191.42C355.26 191.361 354.235 191.351 353.318 190.887Z" fill="#7BAADA"/>
<path d="M371.822 198.35C371.891 196.014 371.654 193.668 372.196 191.351C373.34 186.392 376.564 183.287 381.138 181.423C385.131 179.807 389.321 179.432 393.589 179.649C395.088 179.728 395.965 180.891 395.433 182.37C393.175 188.64 390.277 194.604 384.943 198.893C381.444 201.712 377.451 202.432 373.222 200.352C372.965 200.224 372.679 200.154 372.413 200.056C372.463 199.346 373.123 199.346 373.557 199.149C377.727 197.207 381.601 194.811 385.032 191.726C385.17 191.597 385.328 191.479 385.446 191.321C385.624 191.095 385.84 190.838 385.614 190.552C385.338 190.197 384.983 190.335 384.726 190.562C383.987 191.183 383.277 191.814 382.528 192.425C379.758 194.703 376.613 196.379 373.468 198.045C372.965 198.321 372.433 198.636 371.822 198.35Z" fill="#77B9C9"/>
<path d="M323.535 204.679C329.302 204.679 335.069 204.679 340.836 204.689C340.955 206.03 341.073 207.361 341.201 208.701C338.451 209.52 335.631 209.953 332.782 210.17C330.465 210.19 328.158 209.766 325.842 209.845C324.235 209.5 323.081 208.347 321.731 207.558C321.258 207.282 321.346 207.016 321.672 206.651C322.263 205.961 322.726 205.162 323.535 204.679Z" fill="#5393A5"/>
<path d="M371.822 198.35C376.376 196.379 380.605 193.894 384.224 190.473C384.825 189.902 385.357 189.517 386.018 190.237C386.747 191.045 385.87 191.449 385.436 191.844C381.601 195.363 377.155 197.966 372.413 200.066C370.067 201.14 367.612 201.959 365.157 202.737C364.605 202.915 364.004 203.339 363.698 202.313C363.412 201.387 363.974 201.288 364.595 201.081C367.04 200.283 369.485 199.454 371.822 198.35Z" fill="#5394A5"/>
<path d="M342.04 219.368C340.955 218.836 339.703 219.191 338.579 218.57C336.223 217.269 335.444 215.08 334.813 212.734C334.616 211.985 335.326 211.945 335.681 211.62C337.623 211.265 339.565 210.9 341.507 210.545C341.389 213.513 342.089 216.421 342.04 219.368Z" fill="#77BACB"/>
<path d="M340.009 187.999C339.821 185.712 339.634 183.415 339.447 181.127C339.664 181.305 339.94 181.443 340.088 181.66C342.976 185.85 346.821 188.787 351.602 190.552C351.356 191.745 351.109 192.948 350.774 194.535C348.477 189.901 344.918 187.762 340.009 187.999Z" fill="#E4EBF9"/>
<path d="M317.985 79.4474C319.444 79.4572 320.893 79.4671 322.352 79.4769C323.624 80.1375 323.91 81.4486 324.452 82.5922C324.285 83.5189 323.525 83.44 322.875 83.4795C320.045 83.6865 317.206 83.7457 314.377 83.8935C308.994 84.1597 303.611 84.3569 298.238 84.6428C297.953 84.6625 297.657 84.6526 297.371 84.6329C295.468 83.4302 295.508 81.3698 297.46 80.2065C297.992 79.9502 298.564 79.9008 299.136 79.9008C304.301 79.8614 309.448 79.2699 314.623 79.3586C315.057 79.3685 315.481 79.2995 315.895 79.1812C316.625 79.0235 317.334 79.0333 317.985 79.4474Z" fill="#4174A8"/>
<path d="M329.864 92.7366C329.963 92.8253 330.061 92.914 330.17 93.0028C335.099 103.285 340.028 113.568 344.948 123.86C348.378 131.027 351.789 138.204 355.191 145.391C357.685 150.665 360.09 155.988 362.663 161.223C363.334 162.594 363.896 164.023 364.655 165.354C364.911 165.807 365.049 166.3 364.448 166.576C363.797 166.872 363.787 166.251 363.62 165.896C360.406 159.202 357.162 152.518 353.968 145.805C350.429 138.371 346.969 130.899 343.42 123.475C339.861 116.003 336.233 108.559 332.654 101.087C331.491 98.6714 330.397 96.2265 329.263 93.7915C329.076 93.3873 328.859 93.0028 329.361 92.6577C329.529 92.6873 329.697 92.7169 329.864 92.7366Z" fill="#4174A8"/>
<path d="M297.164 84.3864C301.807 84.0512 306.46 83.9329 311.104 83.7358C314.889 83.578 318.655 83.2133 322.451 83.2034C323.18 83.2034 323.89 83.1245 324.462 82.6021C324.906 83.0062 325.162 83.4991 325.231 84.0907C324.235 83.5386 323.121 83.6865 322.125 83.8541C319.365 84.3174 316.585 84.0118 313.815 84.2977C310.345 84.6526 306.825 84.4456 303.335 84.7117C301.373 84.8596 299.421 84.9188 297.46 84.9484C296.996 84.9484 296.996 84.7118 297.164 84.3864Z" fill="#649EDA"/>
<path d="M317.985 79.4474C317.324 79.4671 316.654 79.4967 315.993 79.5164C313.046 79.753 310.157 79.2207 307.249 78.846C306.49 78.7475 305.731 78.5799 304.971 78.4714C299.894 77.7813 296.582 74.8829 294.66 70.2987C293.654 67.9031 293.013 65.3991 292.757 62.7965C292.363 58.8235 290.726 55.5406 287.266 53.3028C286.861 53.0465 286.467 52.7606 286.093 52.4648C285.787 52.2183 285.126 52.1395 285.363 51.5775C285.54 51.1438 286.102 51.1931 286.526 51.1832C291.465 51.0156 295.764 52.7605 299.737 55.5111C302.605 57.4926 305.021 59.9572 307.288 62.5894C307.85 63.2401 308.422 63.9006 309.053 64.4823C310.019 65.7934 310.975 67.1046 311.941 68.4059C314.278 71.9254 316.151 75.6716 317.985 79.4474Z" fill="#FEC0C1"/>
<path d="M309.063 64.4821C307.791 64.423 307.427 63.2695 306.776 62.5301C302.478 57.6896 297.736 53.5294 291.17 51.9914C289.317 51.5577 287.473 51.4985 285.56 51.5872C285.61 52.2576 286.211 52.2576 286.586 52.4548C290.647 54.6532 292.59 58.1628 293.142 62.6188C293.713 67.2819 294.798 71.7379 298.436 75.1588C300.506 77.1009 303.02 77.8798 305.731 78.2347C309.152 78.698 312.543 79.3191 315.994 79.5163C315.461 79.8613 314.87 79.7036 314.308 79.7331C309.024 79.9599 303.739 80.1571 298.455 80.3838C298.12 80.3937 297.795 80.4725 297.46 80.5218C296.286 79.3782 295.922 77.791 295.261 76.3911C293.901 73.4927 292.521 70.5845 291.249 67.6467C291.002 67.0749 290.726 66.5129 290.785 65.8623C290.933 65.2018 290.874 64.4722 291.436 63.9497C292.067 60.6866 290.854 57.9361 288.833 55.5405C287.443 53.904 286.053 52.1097 283.707 51.6267C283.638 51.6168 283.618 51.3704 283.579 51.2323C283.855 50.2958 284.644 50.4535 285.344 50.3944C291.633 49.9014 296.967 52.1985 301.787 55.9841C304.045 57.7685 306.066 59.7895 307.89 62.0175C308.698 63.0132 309.546 64.0286 311.084 63.654C310.532 64.2554 309.379 63.3188 309.063 64.4821Z" fill="#ED9C9E"/>
<path d="M77.734 38.7122C77.8523 34.0591 78.5129 29.9284 80.662 26.1526C81.8253 24.102 83.4125 22.4754 85.5617 21.4205C91.4176 18.532 97.1256 21.6374 97.796 28.1046C98.2791 32.7775 97.4214 37.1546 94.8385 41.1572C92.2753 45.14 88.9825 48.3538 84.911 50.8184C84.2209 51.2423 83.7378 51.1832 83.1167 50.71C80.0508 48.3637 78.3157 45.278 77.8819 41.4726C77.7636 40.4276 77.7735 39.3728 77.734 38.7122Z" fill="#FEFEFE"/>
<path d="M291.436 63.9402C291.466 64.6204 291.318 65.2711 291.091 65.9119C290.588 66.5231 289.839 66.5921 289.149 66.7695C283.953 68.061 278.788 69.4116 273.612 70.7819C273.395 70.8509 273.168 70.9101 272.942 70.9397C271.561 71.2058 270.211 71.6298 268.781 71.6396C265.518 72.4283 262.255 73.217 258.992 74.0155C258.568 74.1141 258.075 74.4887 257.848 73.7395C262.452 70.9692 265.094 66.9075 265.962 61.6628C274.115 62.0079 282.258 62.2347 290.421 62.2149C291.87 62.1952 291.239 63.2797 291.436 63.9402Z" fill="#579EAC"/>
<path d="M194.488 59.6513C194.468 52.3462 200.719 46.1058 208.033 46.1255C215.447 46.1551 221.471 52.1688 221.579 59.6415C221.678 66.8776 215.408 73.0687 207.974 73.0687C200.689 73.0687 194.508 66.9269 194.488 59.6513Z" fill="#32477C"/>
<path d="M236.1 59.5429C236.12 52.1589 242.272 46.0762 249.646 46.1255C257.069 46.1847 263.073 52.2378 263.063 59.6612C263.054 66.9959 257 73.0588 249.666 73.0687C242.154 73.0786 236.081 67.0255 236.1 59.5429Z" fill="#32477C"/>
<path d="M257.848 73.7395C258.144 74.1634 258.607 73.9367 258.992 74.0155C258.173 74.4395 257.276 74.5381 256.379 74.6564C256.704 74.0846 257.335 74.0057 257.848 73.7395Z" fill="#80ACB8"/>
<path d="M310.147 51.8435C312.947 51.8632 314.702 53.3519 315.077 55.9742C315.136 56.3883 315.077 56.8319 314.978 57.246C314.889 57.6403 314.623 57.936 314.14 57.8375C313.696 57.7586 313.696 57.4037 313.677 57.0586C313.647 56.4474 313.706 55.8362 313.519 55.2151C313.125 53.9631 312.306 53.3124 310.995 53.273C310.709 53.2631 310.414 53.2927 310.128 53.2631C309.526 53.1941 308.521 53.5589 308.58 52.5434C308.639 51.7055 309.595 51.9027 310.147 51.8435Z" fill="#EE9DA0"/>
<path d="M273.405 70.4958C277.979 69.0565 282.682 68.0706 287.315 66.8285C288.567 66.4933 289.829 66.2172 291.091 65.9116C291.278 67.2524 291.988 68.396 292.53 69.6085C294.157 73.2562 295.813 76.8841 297.459 80.5218C296 81.6457 295.971 81.9809 297.164 84.3864C297.183 84.6131 297.223 84.83 297.459 84.9483C299.539 89.7691 301.629 94.58 303.71 99.4008C303.897 99.8345 304.203 100.239 304.084 100.751C303.995 100.83 303.897 100.919 303.808 100.998C298.09 105.158 291.199 103.896 287.098 99.736C285.028 97.6361 284.032 95.0335 283.559 92.1844C283.47 92.0562 283.391 91.9182 283.322 91.7703C283.194 91.2971 283.214 90.8338 283.47 90.4C283.943 89.9268 284.584 89.8676 285.186 89.7001C288.823 88.7043 292.096 87.0481 294.916 84.2483C291.18 85.037 287.532 84.6624 283.904 84.7511C280.246 84.6328 277.861 82.464 275.988 79.6642C274.44 77.3573 273.76 74.6856 273.188 72.0041C273.05 71.4816 273.06 70.9591 273.405 70.4958Z" fill="#FEC0C1"/>
<path d="M254.674 190.069C250.356 194.565 245.012 195.955 239.117 194.525C233.222 193.096 229.338 189.251 227.662 183.346C227.583 183.07 227.524 182.794 227.455 182.518C228.391 182.34 229.032 181.64 229.791 181.157C237.313 176.297 248.019 178.831 252.643 186.501C253.353 187.674 253.53 189.152 254.674 190.069Z" fill="#7BAADA"/>
<path d="M316.891 204.403C301.866 204.403 286.842 204.502 271.818 204.334C268.219 204.295 264.611 204.226 261.013 204.127C262.147 203.467 263.448 203.812 264.651 203.644C268.101 203.161 271.601 203.023 275.071 202.678C279.488 202.244 283.904 201.722 288.321 201.298C291.84 200.953 295.37 200.716 298.889 200.381C302.359 200.056 305.819 199.652 309.29 199.297C310.67 199.159 312.05 198.971 313.44 198.971C314.761 198.971 315.629 198.705 315.431 197.147C315.412 196.99 315.579 196.812 315.668 196.655C315.471 199.326 315.875 201.909 316.891 204.403Z" fill="#4174A8"/>
<path d="M274.016 91.8986C273.306 96.3645 272.597 100.83 271.897 105.296C271.157 109.999 270.438 114.701 269.678 119.394C269.097 123.012 268.476 126.63 267.874 130.238C267.027 135.355 266.189 140.471 265.351 145.598C264.611 150.103 263.842 154.608 263.113 159.123C262.304 164.151 261.516 169.189 260.717 174.217C260.234 177.224 259.731 180.23 259.278 183.237C259.199 183.789 258.962 183.996 258.44 183.957C257.819 183.917 257.976 183.563 258.036 183.149C258.883 177.983 259.712 172.807 260.53 167.641C261.368 162.377 262.186 157.112 263.034 151.848C263.625 148.181 264.266 144.523 264.867 140.866C265.705 135.749 266.524 130.623 267.362 125.506C268.19 120.478 269.038 115.46 269.856 110.433C270.773 104.793 271.65 99.1545 272.577 93.5154C272.695 92.8253 272.488 91.9381 273.405 91.5733C273.691 91.5635 273.908 91.6423 274.016 91.8986Z" fill="#649EDA"/>
<path d="M274.016 91.8987C273.819 91.7903 273.622 91.6819 273.425 91.5734C273.789 89.858 274.194 88.1525 274.302 86.3879C274.391 85.9935 274.489 85.5992 274.578 85.2147C274.746 82.4149 274.233 81.7544 271.65 81.4586C271.246 80.9756 271.236 80.384 271.315 79.8221C271.68 77.1308 271.975 74.4394 272.38 71.7579C272.439 71.334 272.547 70.9101 272.863 70.5946C273.04 70.565 273.218 70.5354 273.395 70.5059C274.036 75.4647 275.386 80.0686 279.813 83.1148C281.025 83.9528 282.386 84.3866 283.865 84.3866C284.486 85.5992 284.446 86.8117 283.924 88.0342C281.518 89.7791 279.034 91.3565 276.382 91.6424C276.983 91.5241 278.009 91.4354 279.034 91.465C280.089 91.4847 281.144 91.465 282.199 91.4748C282.682 91.4847 283.165 91.4945 283.539 91.8692C283.539 91.9776 283.529 92.086 283.529 92.1945C280.907 92.1747 278.295 92.1452 275.672 92.1353C275.13 92.1255 274.558 92.1452 274.016 91.8987Z" fill="#C9D3EE"/>
<path d="M258.992 204.137C259.78 204.669 260.668 204.364 261.505 204.403C262.541 204.453 263.132 204.748 263.043 205.931C262.817 208.879 262.491 211.807 261.239 214.538C260.214 216.785 258.42 217.801 256.359 217.367C256.359 213.739 257.03 210.17 257.385 206.572C257.493 205.478 257.444 204.384 257.592 203.299C257.828 203.95 258.262 204.275 258.992 204.137Z" fill="#77BACB"/>
<path d="M235.568 134.497C235.607 133.994 235.341 133.432 235.854 133.018C235.824 133.531 235.943 134.063 235.568 134.497Z" fill="#C9D3EE"/>
<path d="M232.936 143.951C229.012 149.018 224.822 153.859 220.494 158.601C216.758 162.682 212.706 166.428 208.664 170.175C203.804 174.69 199.407 179.609 194.931 184.479C186.226 193.943 178.527 204.167 171.389 214.824C170.384 216.332 169.408 217.86 168.412 219.378C168.609 213.759 169.073 208.169 169.782 202.579C170.591 196.142 171.922 189.803 173.4 183.503C175.352 175.163 179.148 167.769 185.871 162.179C190.663 158.197 196.114 155.318 201.911 153.031C206.969 151.039 212.164 149.492 217.409 148.161C222.604 146.84 227.75 145.331 232.936 143.951Z" fill="#D7DEF1"/>
<path d="M298.337 218.215C298.337 214.952 298.347 211.689 298.317 208.426C298.307 207.578 298.455 207.341 299.47 207.45C302.714 207.795 305.987 207.814 309.23 208.179C311.488 208.436 313.834 208.061 316.013 209.007C310.68 213.158 304.686 216.027 298.337 218.215Z" fill="#77BACB"/>
<path d="M317.413 197.483C317.531 193.066 321.051 188.403 325.329 186.974C327.498 186.254 328.908 187.23 328.869 189.635C328.839 191.597 328.356 193.5 327.271 195.196C324.896 197.966 321.731 198.754 318.251 198.705C317.521 198.695 317.058 198.321 317.413 197.483Z" fill="#4E88C4"/>
<path d="M317.413 197.483C317.373 198.301 317.876 198.37 318.537 198.38C321.869 198.429 324.678 197.128 327.271 195.205C325.99 198.764 323.811 201.741 321.179 204.423C320.508 204.827 319.838 204.955 319.158 204.433C317.768 202.313 317.107 200.016 317.413 197.483Z" fill="#4174A8"/>
<path d="M325.832 209.835C325.792 209.678 325.625 209.382 325.881 209.392C328.07 209.539 330.248 209.727 332.427 209.924C332.545 209.934 332.654 210.082 332.772 210.161C330.426 210.722 328.129 210.377 325.832 209.835Z" fill="#6AA6BC"/>
<path d="M319.158 204.423C319.828 204.423 320.509 204.413 321.179 204.413C320.025 205.862 319.868 205.862 319.158 204.423Z" fill="#4E82A4"/>
<path d="M296.612 210.24C296.612 210.387 296.641 210.535 296.612 210.664C296.434 211.442 297.105 212.477 296.119 212.97C295.005 213.532 292.797 212.813 292.087 211.768C291.19 210.447 290.992 208.948 291.111 207.391C291.17 206.572 291.771 206.631 292.264 206.779C293.073 207.026 293.871 206.976 294.679 206.986C296.543 207.026 296.622 207.095 296.622 208.938C296.612 209.382 296.612 209.816 296.612 210.24Z" fill="#77BACB"/>
<path d="M272.873 70.5942C272.547 73.3152 272.271 76.0558 271.877 78.7669C271.749 79.664 271.778 80.571 271.66 81.4582C267.5 81.2216 263.33 81.0541 259.179 80.7287C257.474 80.6006 255.729 80.8865 254.043 80.3738C259.13 79.9795 264.227 79.595 269.314 79.1809C270.388 79.0922 270.95 78.2542 270.773 77.4064C270.388 75.5136 269.728 73.6701 269.166 71.8068C269.136 71.7181 268.91 71.6984 268.781 71.6392C270.083 71.0576 271.492 70.8703 272.873 70.5942Z" fill="#ED9C9E"/>
<path d="M197.021 59.1487C197.081 55.8855 198.648 52.859 201.724 50.6112C202.266 50.2169 202.897 49.7141 203.479 50.4634C204.08 51.2422 203.4 51.6266 202.838 52.0505C198.993 54.9489 197.84 59.2374 199.732 63.654C200.008 64.2948 200.186 64.906 199.456 65.251C198.678 65.6257 198.352 64.975 198.066 64.4032C197.307 62.9244 197.031 61.3372 197.021 59.1487Z" fill="#FCFCFD"/>
<path d="M204.878 70.2988C203.124 70.0031 201.576 69.313 200.491 67.8342C200.127 67.3413 200.117 66.8484 200.639 66.454C201.122 66.0893 201.576 66.2667 201.901 66.6906C202.719 67.7356 203.804 68.2778 205.076 68.5046C205.687 68.613 206.071 68.9285 205.963 69.5693C205.874 70.1214 205.45 70.3481 204.878 70.2988Z" fill="#F9FAFB"/>
<path d="M238.506 59.6517C238.723 55.8857 240.172 52.7803 243.307 50.572C243.81 50.2171 244.431 49.7439 244.963 50.4241C245.525 51.1438 244.953 51.617 244.381 52.0606C240.566 54.9985 239.452 59.0503 241.217 63.5556C241.473 64.2063 241.808 64.9062 240.941 65.271C240.044 65.6456 239.797 64.8471 239.521 64.2457C238.861 62.7768 238.595 61.2192 238.506 59.6517Z" fill="#FCFCFD"/>
<path d="M246.068 70.2591C244.638 70.0324 243.09 69.2536 241.976 67.765C241.661 67.341 241.651 66.8777 242.104 66.4932C242.568 66.1088 243.002 66.2271 243.356 66.6411C244.263 67.696 245.407 68.317 246.787 68.5438C247.329 68.6325 247.645 69.0071 247.527 69.5691C247.408 70.1014 247.014 70.338 246.068 70.2591Z" fill="#FBFBFC"/>
<path d="M283.608 88.1327C284.101 86.9102 283.736 85.6188 283.874 84.3766C287.838 84.2583 291.84 84.8005 296.099 83.4795C292.57 87.4426 288.419 89.5129 283.608 90.3903C282.997 89.641 283.017 88.8918 283.608 88.1327Z" fill="#ED9B9D"/>
<path d="M283.609 88.1327C283.609 88.882 283.609 89.6411 283.618 90.3903C283.599 90.8833 283.579 91.3663 283.559 91.8592C280.878 91.8592 278.196 91.8592 275.505 91.8592C278.315 90.9227 280.996 89.7692 283.372 88.0046C283.411 87.9849 283.53 88.0933 283.609 88.1327Z" fill="#E4EBF9"/>
<path d="M291.061 73.5815C290.983 74.1336 290.608 74.2814 290.135 74.2814C287.867 74.2814 285.679 74.7349 283.51 75.3264C283.086 75.4447 282.603 75.6025 282.465 74.9912C282.327 74.38 282.839 74.3702 283.263 74.242C285.56 73.5716 287.926 73.2857 290.283 72.9801C290.795 72.9111 291.002 73.1477 291.061 73.5815Z" fill="#EE9D9F"/>
</svg>
